<svg width="375" height="21" viewBox="0 0 375 21" fill="none" xmlns="http://www.w3.org/2000/svg">
<mask id="mask0_1187_5903" style="mask-type:alpha" maskUnits="userSpaceOnUse" x="0" y="0" width="375" height="21">
<rect width="375" height="21" fill="#D9D9D9"/>
</mask>
<g mask="url(#mask0_1187_5903)">
<path d="M-929.859 46.0024C-888.342 49.4556 -840.475 44.5103 -794.242 40.0114C-348.557 -3.36799 92.069 -6.65607 488.442 30.4328C581.322 39.1189 672.188 50.0294 770.095 53.5012C847.706 56.2579 931.043 54.0533 1013.34 42.8576C1050.93 37.7299 1083.08 23.3724 1093.11 7.38925C1094.99 4.41996 1096.01 1.47698 1096.22 -1.40163C1099.8 -51.0591 1103.41 -100.721 1106.99 -150.364C1109.16 -180.716 1110.46 -212.577 1075.3 -234.883C1030.03 -263.585 932.519 -269.83 838.046 -262.208C743.61 -254.577 649.279 -235.211 555.417 -218.613C94.7727 -137.131 -375.704 -119.674 -839.11 -47.3154C-871.472 -42.2599 -904.439 -36.7933 -933.921 -27.7415C-963.403 -18.6897 -989.335 -5.32684 -995.713 8.43147C-1004.78 28.0314 -971.377 42.5349 -929.86 45.9882L-929.859 46.0024Z" fill="#F3F7F5"/>
</g>
</svg>
