<svg width="1440" height="90" viewBox="0 0 1440 90" fill="none" xmlns="http://www.w3.org/2000/svg">
<mask id="mask0_1187_5921" style="mask-type:alpha" maskUnits="userSpaceOnUse" x="0" y="0" width="1440" height="90">
<path d="M0 0H1440V90H0V0Z" fill="#F8F1ED"/>
</mask>
<g mask="url(#mask0_1187_5921)">
<path d="M-605.192 185.176C-578.486 105.904 -421.005 24.4041 -152.237 3.37125C33.3282 -12.1521 187.069 10.4972 340.712 39.8584C442.779 58.7131 546.75 78.6814 667.026 83.3631C865.059 91.4253 1042.39 55.6281 1223.43 37.8872C1355.25 24.3647 1512.34 22.3048 1624.68 50.572C1666.21 61.0785 1686.68 71.6442 1732.32 80.3373C1800.79 92.6376 1891.25 106.239 1962.05 117.997C1989.97 122.521 2012.67 126.03 2034.39 131.609C2078.06 143.061 2093.31 164.4 2107.16 181.382C2144.2 233.905 2114.74 290.005 2034.95 337.896C1890.03 424.61 1594.26 481.45 1286.32 505.548C1094.72 520.864 895.078 525.595 697.243 524.797C414.367 523.565 125.684 509.943 -121.725 467.227C-466.576 409.057 -650.402 303.755 -605.258 185.373L-605.192 185.176Z" fill="#F8F1ED"/>
</g>
</svg>
