<svg width="1440" height="249" viewBox="0 0 1440 249" fill="none" xmlns="http://www.w3.org/2000/svg">
<mask id="mask0_571_3092" style="mask-type:alpha" maskUnits="userSpaceOnUse" x="0" y="147" width="1440" height="59">
<rect y="147.248" width="1440" height="58" fill="#F3F7F5"/>
</mask>
<g mask="url(#mask0_571_3092)">
<path d="M-245.293 196.381C-203.776 199.834 -155.909 194.889 -109.676 190.39C336.009 147.011 776.635 143.723 1173.01 180.812C1265.89 189.498 1356.75 200.408 1454.66 203.88C1532.27 206.637 1615.61 204.432 1697.91 193.237C1735.5 188.109 1767.65 173.751 1777.68 157.768C1779.55 154.799 1780.58 151.856 1780.79 148.977C1784.36 99.3198 1787.98 49.6577 1791.55 0.0145118C1793.73 -30.3367 1795.02 -62.1986 1759.86 -84.5044C1714.59 -113.206 1617.09 -119.451 1522.61 -111.83C1428.18 -104.198 1333.84 -84.8318 1239.98 -68.2343C779.339 13.2479 308.862 30.7048 -154.544 103.064C-186.906 108.119 -219.874 113.586 -249.355 122.637C-278.837 131.689 -304.769 145.052 -311.147 158.81C-320.216 178.41 -286.811 192.914 -245.294 196.367L-245.293 196.381Z" fill="#F3F7F5"/>
</g>
</svg>
