<svg width="1436" height="156" viewBox="0 0 1436 156" fill="none" xmlns="http://www.w3.org/2000/svg">
<mask id="mask0_602_1641" style="mask-type:alpha" maskUnits="userSpaceOnUse" x="0" y="49" width="1441" height="58">
<rect x="0.877543" y="49.0764" width="1440" height="57" fill="white"/>
</mask>
<g mask="url(#mask0_602_1641)">
<path d="M2679.8 -229.436C2455.32 -180.578 2371.01 -49.0218 2282.01 30.9917C2250.32 59.4831 2146.82 128.55 2069.71 148.858C2005.39 165.794 1903.9 148.541 1837.59 146.636C1735.96 143.713 1680.02 123.616 1611.97 97.7445C1583.23 86.8035 1563.05 74.2563 1520.03 75.9238C1488.2 77.1731 1445.46 89.6181 1417.01 94.8335C1340.57 108.831 1304.29 91.1855 1224.78 95.7675C1194.38 97.5185 1162.98 105.885 1132.33 104.781C1097.94 103.552 1072 90.4313 1036 86.8078C865.322 69.5405 677.325 71.0762 498.883 65.9689C352.539 61.7952 127.394 76.2685 -7.39108 52.9517C12.4864 42.3558 59.9852 38.1234 90.8849 33.4593C246.907 9.90662 407.099 -4.50514 568.729 -19.4092C660.255 -27.8612 758.558 -35.0758 848.551 -46.9203C1031.33 -71.0061 1203.67 -106.776 1389.84 -129.409C1876.4 -188.539 2153.25 -258.827 2634.88 -321.251" fill="white"/>
</g>
</svg>
