<svg width="1440" height="135" viewBox="0 0 1440 135" fill="none" xmlns="http://www.w3.org/2000/svg">
<mask id="mask0_1187_5950" style="mask-type:alpha" maskUnits="userSpaceOnUse" x="0" y="0" width="1440" height="135">
<rect width="1440" height="135" fill="#D9D9D9"/>
</mask>
<g mask="url(#mask0_1187_5950)">
<path d="M-646.211 390.796C-625.12 251.34 -462.704 100.057 -173.873 47.1403C25.4449 8.86369 194.081 38.8939 363.273 80.6003C475.605 107.175 590.108 135.571 720.752 136.396C935.889 138.37 1124.3 65.3438 1318.49 23.4867C1459.84 -8.04262 1629.67 -21.1782 1754.04 21.1382C1800.03 36.88 1823.23 54.0056 1873.49 66.3448C1948.81 83.5672 2048.05 101.715 2125.85 117.853C2156.51 124.021 2181.43 128.741 2205.49 137.119C2253.88 154.377 2272.5 190.55 2289.16 219.235C2334.43 308.305 2308.07 407.64 2226.43 495.761C2078.13 655.345 1763.6 772.162 1432.67 832.791C1226.8 871.075 1011.19 891.442 796.978 902.086C490.683 917.149 176.881 911.023 -95.1173 851.799C-474.106 771.63 -683.454 599.72 -646.262 391.143L-646.211 390.796Z" fill="white"/>
</g>
</svg>
