<svg width="376" height="49" viewBox="0 0 376 49" fill="none" xmlns="http://www.w3.org/2000/svg">
<mask id="mask0_1183_5876" style="mask-type:alpha" maskUnits="userSpaceOnUse" x="0" y="12" width="376" height="24">
<rect x="0.353898" y="12.7821" width="375" height="23" fill="#D9D9D9"/>
</mask>
<g mask="url(#mask0_1183_5876)">
<path d="M1598.15 -302.732C1373.67 -253.874 1289.36 -122.318 1200.36 -42.3046C1168.67 -13.8131 1065.17 55.2534 988.066 75.5618C923.743 92.4978 822.253 75.2445 755.94 73.3396C654.312 70.4168 598.376 50.3194 530.317 24.4483C501.584 13.5072 481.402 0.960005 438.386 2.62749C406.547 3.87688 363.809 16.3219 335.366 21.5372C258.927 35.5351 222.643 17.8893 143.134 22.4712C112.736 24.2222 81.3361 32.5886 50.6778 31.4843C16.2931 30.2562 -9.64947 17.135 -45.6485 13.5116C-216.326 -3.75576 -404.323 -2.22006 -582.765 -7.32735C-729.109 -11.5011 -954.254 2.97219 -1089.04 -20.3446C-1069.16 -30.9405 -1021.66 -35.1729 -990.763 -39.837C-834.741 -63.3896 -674.55 -77.8014 -512.919 -92.7055C-421.394 -101.158 -323.091 -108.372 -233.097 -120.217C-50.3157 -144.302 122.024 -180.072 308.195 -202.706C794.748 -261.835 1071.6 -332.123 1553.23 -394.547" fill="white"/>
</g>
</svg>
