<svg width="375" height="299" viewBox="0 0 375 299" fill="none" xmlns="http://www.w3.org/2000/svg">
<mask id="mask0_1177_5036" style="mask-type:alpha" maskUnits="userSpaceOnUse" x="-159" y="0" width="709" height="299">
<path d="M-157.235 105.882C-150.312 60.9596 -109.488 14.7747 -39.8146 2.85566C8.28987 -5.9412 48.1445 6.89384 87.9736 23.5325C114.433 34.2172 141.385 45.533 172.565 48.186C223.901 52.7548 269.871 32.469 316.802 22.4154C350.975 14.7524 391.697 13.585 420.818 29.6037C431.586 35.5576 436.893 41.5451 448.723 46.4713C466.473 53.4418 489.922 61.1495 508.276 67.8128C515.513 70.3765 521.399 72.3648 527.029 75.5261C538.349 82.0162 542.304 94.1084 545.893 103.732C555.496 133.496 547.858 165.288 527.174 192.427C489.607 241.566 412.934 273.777 333.106 287.433C283.436 296.112 231.683 298.793 180.398 298.341C107.067 297.643 32.2315 289.924 -31.905 265.717C-121.301 232.753 -168.955 173.079 -157.252 105.994L-157.235 105.882Z" fill="white"/>
</mask>
<g mask="url(#mask0_1177_5036)">
<rect y="-1.04688" width="375" height="51" fill="white"/>
</g>
</svg>
