<svg width="1440" height="91" viewBox="0 0 1440 91" fill="none" xmlns="http://www.w3.org/2000/svg">
<mask id="mask0_1177_5040" style="mask-type:alpha" maskUnits="userSpaceOnUse" x="0" y="0" width="1440" height="91">
<rect width="1440" height="91" fill="#D9D9D9"/>
</mask>
<g mask="url(#mask0_1177_5040)">
<path d="M-1947.48 195.037C-1894.43 113.137 -1581.59 28.9361 -1047.69 7.20623C-679.073 -8.83154 -373.671 14.5683 -68.4648 44.9026C134.289 64.3822 340.824 85.0124 579.749 89.8491C973.135 98.1786 1325.4 61.195 1685.02 42.8661C1946.89 28.8954 2258.94 26.7672 2482.09 55.9712C2564.6 66.826 2605.27 77.7419 2695.93 86.723C2831.94 99.4311 3011.63 113.483 3152.27 125.631C3207.73 130.305 3252.83 133.93 3295.98 139.694C3382.72 151.526 3413.03 173.571 3440.53 191.116C3514.11 245.38 3455.59 303.34 3297.08 352.818C3009.21 442.405 2421.68 501.129 1809.96 526.026C1429.35 541.85 1032.77 546.737 639.774 545.913C77.8493 544.64 -495.611 530.567 -987.083 486.435C-1672.12 426.337 -2037.29 317.545 -1947.61 195.24L-1947.48 195.037Z" fill="white"/>
</g>
</svg>
