<svg width="1440" height="253" viewBox="0 0 1440 253" fill="none" xmlns="http://www.w3.org/2000/svg">
<mask id="mask0_1177_5031" style="mask-type:alpha" maskUnits="userSpaceOnUse" x="0" y="0" width="1440" height="253">
<rect width="1440" height="253" fill="#D9D9D9"/>
</mask>
<g mask="url(#mask0_1177_5031)">
<rect x="31" y="109" width="100" height="100" fill="#D9D9D9"/>
<path d="M1518.45 120.231C1477.56 110.831 1429.48 115.475 1383.07 119.478C935.672 158.094 497.516 127.591 107.574 30.696C16.2012 7.99917 -72.9377 -18.39 -169.854 -32.4562C-246.679 -43.6144 -329.715 -46.6385 -412.664 -33.9832C-450.555 -28.1787 -484.009 -5.91901 -495.654 20.9778C-497.83 25.9736 -499.157 30.9937 -499.668 35.9691C-508.443 121.8 -517.253 207.636 -526.028 293.442C-531.38 345.904 -536.016 401.058 -503.426 442.634C-461.464 496.133 -365.234 514.977 -270.563 509.521C-175.928 504.045 -80.1635 478.207 14.8438 457.133C481.111 353.662 950.418 362.043 1418.47 274.623C1451.16 268.514 1484.49 261.742 1514.73 248.465C1544.98 235.188 1572.15 214.143 1579.93 190.805C1591.01 157.556 1559.34 129.657 1518.45 120.256L1518.45 120.231Z" fill="#F8F1ED"/>
</g>
</svg>
