<svg width="375" height="70" viewBox="0 0 375 70" fill="none" xmlns="http://www.w3.org/2000/svg">
<mask id="mask0_1177_5034" style="mask-type:alpha" maskUnits="userSpaceOnUse" x="0" y="0" width="375" height="70">
<rect width="375" height="70" fill="#D9D9D9"/>
</mask>
<g mask="url(#mask0_1177_5034)">
<path d="M451.419 33.19C440.771 31.4282 428.25 32.2986 416.164 33.049C299.654 40.2861 185.551 34.5694 84.0036 16.4097C60.2086 12.1559 36.9954 7.21016 11.7568 4.57393C-8.24973 2.48269 -29.8738 1.91593 -51.475 4.28774C-61.3424 5.3756 -70.0544 9.54742 -73.087 14.5883C-73.6537 15.5246 -73.9992 16.4655 -74.1323 17.3979C-76.4174 33.484 -78.7117 49.5711 -80.9968 65.6526C-82.3907 75.4848 -83.598 85.8216 -75.111 93.6136C-64.1833 103.64 -39.1235 107.172 -14.4697 106.149C10.175 105.123 35.1137 100.281 59.8551 96.3309C181.279 76.9388 303.494 78.5096 425.383 62.1256C433.895 60.9806 442.575 59.7114 450.451 57.2231C458.328 54.7348 465.404 50.7906 467.431 46.4166C470.314 40.1853 462.067 34.9565 451.419 33.1947L451.419 33.19Z" fill="#F8F1ED"/>
</g>
</svg>
