<svg width="375" height="158" viewBox="0 0 375 158" fill="none" xmlns="http://www.w3.org/2000/svg">
<mask id="mask0_801_1201" style="mask-type:alpha" maskUnits="userSpaceOnUse" x="0" y="92" width="375" height="51">
<rect y="92" width="375" height="51" fill="white"/>
</mask>
<g mask="url(#mask0_801_1201)">
<path d="M848.257 -11.0569C768.046 11.4107 774.516 88.5909 762.319 134.323C757.975 150.607 736.036 189.226 709.625 199.085C687.59 207.305 638.606 193.573 609.63 190.289C565.22 185.254 534.8 171.256 497.328 153.364C481.503 145.798 468.815 137.532 450.957 137.164C437.744 136.902 423.488 143.088 413.01 145.342C384.843 151.39 363.62 139.511 331.096 139.743C318.662 139.831 307.937 143.904 294.468 142.25C279.365 140.402 264.028 131.602 247.46 128.247C168.882 112.287 88.9746 107.189 11.0063 98.3634C-52.9325 91.1346 -144.545 92.701 -209.728 74.2188C-204.652 68.4223 -185.706 67.3759 -173.999 65.5349C-114.884 56.2378 -51.031 52.6252 13.278 48.7597C49.69 46.5633 89.4006 45.3357 124.061 41.0302C194.448 32.2677 256.591 16.0757 328.898 8.30361C517.875 -11.9939 613.557 -45.7944 799.365 -68.2505" fill="#F3F7F5"/>
</g>
</svg>
