<svg width="1440" height="128" viewBox="0 0 1440 128" fill="none" xmlns="http://www.w3.org/2000/svg">
<mask id="mask0_1169_1639" style="mask-type:alpha" maskUnits="userSpaceOnUse" x="0" y="0" width="1442" height="128">
<rect y="0.409938" width="1442" height="127" fill="#D9D9D9"/>
</mask>
<g mask="url(#mask0_1169_1639)">
<path d="M3458.87 -72.0816C3000 -47.0524 2820.05 31.4339 2634.05 78.3656C2567.81 95.077 2353.11 135.019 2195.26 145.768C2063.58 154.732 1858.76 142.038 1724.3 139.461C1518.24 135.51 1406.06 122.052 1269.67 104.812C1212.09 97.5223 1171.97 89.4346 1084.56 89.5348C1019.86 89.6182 932.281 96.3015 874.206 98.8776C718.127 105.79 645.673 94.2473 483.998 95.3478C422.187 95.768 357.897 100.204 295.749 98.8762C226.046 97.3934 174.276 88.8327 101.458 85.8536C-243.78 71.6757 -625.431 68.6034 -987.245 61.6807C-1283.98 56.0124 -1741.89 60.0432 -2013.88 42.939C-1972.82 36.8966 -1876.14 35.3267 -1813.11 33.1394C-1494.88 22.0935 -1168.79 16.715 -839.752 11.0667C-653.429 7.86079 -453.433 5.55459 -269.991 0.245635C102.591 -10.5549 454.765 -28.7083 834.13 -38.5504C1825.59 -64.2579 2392.19 -101.248 3373.88 -129.071" fill="#F3F7F5"/>
</g>
</svg>
