<svg width="375" height="91" viewBox="0 0 375 91" fill="none" xmlns="http://www.w3.org/2000/svg">
<rect width="375" height="91" fill="#F3F7F5"/>
<mask id="mask0_1178_5785" style="mask-type:alpha" maskUnits="userSpaceOnUse" x="0" y="0" width="375" height="91">
<path d="M0 0H375V91H0V0Z" fill="#F3F7F5"/>
</mask>
<g mask="url(#mask0_1178_5785)">
<path d="M816.334 -166.571C799.98 -86.2256 681.228 2.229 471.732 35.3226C327.147 59.1714 205.306 43.4775 83.154 21.0779C2.04374 6.84701 -80.6229 -8.41022 -175.189 -7.67168C-330.911 -6.80916 -467.867 36.9101 -608.774 62.7692C-711.342 82.2021 -834.378 91.3278 -924.083 68.1617C-957.254 59.5413 -973.916 49.914 -1010.2 43.2888C-1064.59 34.0897 -1136.29 24.5809 -1192.48 16.0278C-1214.63 12.7676 -1232.63 10.2862 -1249.98 5.69411C-1284.88 -3.77495 -1298.07 -24.3922 -1309.91 -40.7236C-1341.99 -91.4946 -1322.13 -148.83 -1262.35 -200.234C-1153.75 -293.328 -925.151 -363.386 -685.121 -401.303C-535.792 -425.217 -379.549 -438.924 -224.401 -447.03C-2.55791 -458.53 224.555 -457.922 420.992 -426.408C694.715 -383.851 844.922 -286.992 816.374 -166.771L816.334 -166.571Z" fill="white"/>
</g>
</svg>
