<svg width="374" height="37" viewBox="0 0 374 37" fill="none" xmlns="http://www.w3.org/2000/svg">
<rect x="-0.999512" width="375" height="37" fill="#F3F7F5"/>
<mask id="mask0_1178_5778" style="mask-type:alpha" maskUnits="userSpaceOnUse" x="-1" y="0" width="376" height="37">
<path d="M-0.999512 0H374V37H-0.999512V0Z" fill="#F3F7F5"/>
</mask>
<g mask="url(#mask0_1178_5778)">
<path d="M-1969.21 401.796C-1948.12 262.34 -1785.7 111.057 -1496.87 58.1403C-1297.55 19.8637 -1128.92 49.8939 -959.727 91.6003C-847.394 118.175 -732.891 146.571 -602.247 147.396C-387.11 149.37 -198.704 76.3437 -4.50454 34.4867C136.844 2.95738 306.667 -10.1782 431.042 32.1382C477.035 47.88 500.235 65.0056 550.488 77.3448C625.811 94.5672 725.055 112.715 802.847 128.853C833.512 135.021 858.432 139.741 882.49 148.119C930.884 165.377 949.5 201.55 966.16 230.235C1011.43 319.305 985.072 418.64 903.431 506.761C755.129 666.345 440.604 783.162 109.676 843.791C-96.1968 882.075 -311.813 902.442 -526.021 913.086C-832.316 928.149 -1146.12 922.023 -1418.12 862.799C-1797.1 782.63 -2006.45 610.72 -1969.26 402.143L-1969.21 401.796Z" fill="white"/>
</g>
</svg>
