<svg width="1440" height="164" viewBox="0 0 1440 164" fill="none" xmlns="http://www.w3.org/2000/svg">
<mask id="mask0_1178_5834" style="mask-type:alpha" maskUnits="userSpaceOnUse" x="0" y="0" width="1440" height="164">
<rect width="1440" height="164" fill="#F3F7F5"/>
</mask>
<g mask="url(#mask0_1178_5834)">
<rect width="1440" height="164" fill="#F3F7F5"/>
<path d="M2934.9 -274.855C2906.42 -134.94 2699.62 19.0967 2334.8 76.7266C2083.02 118.257 1870.84 90.9275 1658.12 51.9206C1516.88 27.1385 1372.92 0.5693 1208.24 1.8554C937.061 3.35741 698.564 79.4911 453.186 124.523C274.573 158.363 60.315 174.255 -95.8996 133.913C-153.664 118.901 -182.679 102.136 -245.86 90.599C-340.58 74.5795 -465.441 58.0206 -563.287 43.1261C-601.86 37.4488 -633.21 33.1276 -663.424 25.1309C-724.196 8.64126 -747.172 -27.262 -767.785 -55.7019C-823.643 -144.115 -789.068 -243.961 -684.955 -333.476C-495.839 -495.593 -97.7598 -617.593 320.234 -683.622C580.278 -725.266 852.362 -749.136 1122.54 -763.252C1508.86 -783.277 1904.36 -782.219 2246.44 -727.341C2723.11 -653.231 2984.68 -484.558 2934.97 -275.203L2934.9 -274.855Z" fill="white"/>
</g>
</svg>
