<svg width="624" height="126" viewBox="0 0 624 126" fill="none" xmlns="http://www.w3.org/2000/svg">
<g clip-path="url(#clip0_779_1864)">
<path d="M1.09375 50.6414C6.96655 48.9345 12.8394 47.2874 18.7271 45.6703C24.57 57.9334 30.3229 70.2264 36.001 82.5494C39.4767 90.5601 43.0273 98.5708 46.5031 106.821C46.6529 106.776 46.8027 106.746 46.9525 106.701C46.3682 97.6874 45.9787 88.7484 45.6791 80.019C45.6192 66.2286 45.6791 52.4382 45.8888 38.6179C50.8927 37.3901 55.9115 36.1922 60.9304 35.0243C67.3126 47.2724 73.5749 59.5505 79.7174 71.8885C83.3729 79.7045 86.9835 87.9847 90.639 96.25C90.8188 96.205 91.0135 96.1751 91.1933 96.1302C90.5491 87.2061 89.9648 78.3719 89.4554 69.7623C88.9311 56.2115 88.4966 42.6457 88.137 29.0649C93.6952 27.927 99.2534 26.819 104.827 25.7559C104.482 53.666 104.557 81.5612 105.021 109.396C98.2496 110.789 91.4929 112.241 84.7362 113.769C78.7136 101.281 72.5561 88.8232 66.2938 76.4104C63.4473 70.481 60.7206 64.6414 58.2037 58.742C58.0539 58.7719 57.8891 58.8168 57.7393 58.8468C58.0539 65.2703 58.3835 71.6788 58.5333 78.2521C58.6532 92.1323 58.8929 105.998 59.2524 119.848C52.6455 121.525 46.0536 123.262 39.4617 125.059C27.0869 100.128 14.2926 75.3174 1.09375 50.6414Z" fill="#7DB9AD"/>
<path d="M117.756 22.2073C135.854 18.988 153.996 16.233 172.199 13.9121C172.783 18.449 173.353 23.0009 173.937 27.5378C161.817 29.08 149.727 30.8319 137.651 32.7784C138.655 39.0073 139.659 45.2511 140.663 51.48C150.745 49.8479 160.843 48.3656 170.956 47.033C171.555 51.5699 172.154 56.1068 172.768 60.6586C162.791 61.9763 152.813 63.4437 142.865 65.0458C144.034 72.2629 145.187 79.48 146.356 86.6971C158.251 84.7806 170.162 83.0736 182.087 81.5613C182.656 86.0982 183.241 90.6501 183.81 95.187C166.536 97.3731 149.292 99.9784 132.123 103.033C127.329 76.0961 122.55 49.1442 117.756 22.2073Z" fill="#7DB9AD"/>
<path d="M191.57 11.6204C197.518 10.9615 203.451 10.3626 209.398 9.80859C211.526 32.4931 213.653 55.1776 215.796 77.8621C227.152 76.799 238.538 75.9156 249.909 75.2118C250.193 79.7786 250.463 84.3455 250.748 88.9273C233.983 89.9605 217.249 91.3829 200.544 93.2246C197.548 66.0332 194.567 38.8268 191.57 11.6353V11.6204Z" fill="#7DB9AD"/>
<path d="M261.324 6.14124C267.287 5.85675 273.25 5.63215 279.212 5.4375C279.931 28.2118 280.636 50.9862 281.355 73.7605C292.756 73.4011 304.142 73.2364 315.543 73.2364C315.543 77.8183 315.543 82.4001 315.543 86.9669C298.763 86.9519 281.984 87.3412 265.204 88.1348C263.916 60.8086 262.613 33.4674 261.324 6.14124Z" fill="#7DB9AD"/>
<path d="M331.229 5.0026C337.311 5.09244 343.409 5.2272 349.491 5.42185C357.701 20.2753 365.582 35.2037 373.102 50.2219C375.649 56.2711 378.136 62.3352 380.593 68.4144C380.788 68.4144 380.968 68.4443 381.163 68.4443C380.908 59.8796 380.174 48.9641 380.743 39.6657C381.402 28.7502 382.076 17.8497 382.736 6.93415C388.369 7.27854 394.002 7.66784 399.635 8.08709C397.568 35.3684 395.485 62.6497 393.418 89.9459C387.829 89.5267 382.226 89.1374 376.623 88.808C369.507 73.7299 362.046 58.7267 354.256 43.8133C351.544 37.839 348.802 31.8796 346.001 25.9202C345.806 25.9202 345.611 25.9202 345.401 25.9053C345.986 34.7844 346.96 45.116 346.675 54.5341C346.345 65.4946 346.016 76.455 345.686 87.4154C340.458 87.2657 335.229 87.1459 329.985 87.0561C330.39 59.6999 330.794 32.3438 331.214 4.97266L331.229 5.0026Z" fill="#7DB9AD"/>
<path d="M421.718 10.0039C439.966 11.7558 458.169 13.9419 476.341 16.5772C475.682 21.1141 475.023 25.636 474.364 30.1729C462.273 28.421 450.153 26.8638 438.033 25.5012C437.329 31.775 436.625 38.0488 435.921 44.3226C446.048 45.4606 456.176 46.7333 466.274 48.1558C465.629 52.6927 465 57.2296 464.356 61.7665C454.378 60.374 444.385 59.1012 434.378 57.9932C433.569 65.2552 432.745 72.5323 431.936 79.7943C443.891 81.1269 455.816 82.6692 467.727 84.421C467.068 88.9579 466.393 93.4798 465.734 98.0167C448.49 95.4863 431.202 93.39 413.883 91.743C416.49 64.5066 419.111 37.2702 421.718 10.0339V10.0039Z" fill="#7DB9AD"/>
<path d="M478.603 89.4217C482.363 86.2024 486.169 82.9981 490.004 79.8238C495.113 86.1725 502.319 91.1586 509.585 92.5361C518.199 94.1682 523.503 91.5329 524.656 85.873C525.87 79.8987 521.136 77.0088 514.184 72.5468C510.708 70.3158 507.203 68.0997 503.682 65.8987C495.697 60.9874 488.071 53.0217 489.944 41.2078C492.011 27.9864 506.379 19.7661 524.372 23.18C534.664 25.1265 544.177 30.9361 549.826 39.0816C546.155 41.8067 542.5 44.5468 538.889 47.3019C534.275 41.9265 528.956 38.3778 521.75 37.0153C514.064 35.5628 508.656 37.8837 507.712 43.2292C506.693 49.0088 512.386 52.1532 519.173 56.2709C522.634 58.4719 526.08 60.688 529.51 62.934C539.084 69.0431 544.462 76.7243 541.915 88.2837C538.994 101.385 525.45 109.995 506.619 106.431C495.682 104.365 485.479 98.2709 478.588 89.4516L478.603 89.4217Z" fill="#7DB9AD"/>
<path d="M548.298 102.838C552.283 99.8882 556.298 96.9534 560.343 94.0336C565.032 100.727 571.909 106.177 579.1 108.049C587.625 110.265 593.108 107.989 594.636 102.434C596.239 96.5641 591.715 93.3598 585.033 88.4187C581.692 85.9481 578.351 83.4925 574.965 81.0668C567.295 75.6165 560.193 67.1566 562.875 55.4925C565.826 42.4358 580.763 35.2187 598.546 39.8454C608.719 42.4957 617.873 48.9491 622.981 57.454C619.116 59.9096 615.281 62.3951 611.475 64.8957C607.206 59.2208 602.127 55.3128 595.011 53.4561C587.415 51.4796 581.842 53.4262 580.538 58.6967C579.13 64.4016 584.628 67.9203 591.145 72.4871C594.471 74.9278 597.767 77.3684 601.048 79.839C610.232 86.5919 615.101 94.6176 611.775 105.997C607.97 118.874 593.827 126.526 575.22 121.689C564.418 118.889 554.605 112.106 548.298 102.838Z" fill="#C30D23"/>
<path d="M1.09375 46.4031C6.96655 44.6962 12.8394 43.0491 18.7271 41.432C24.57 53.6951 30.3229 65.9882 36.001 78.3112C39.4767 86.3219 43.0273 94.3326 46.5031 102.583C46.6529 102.538 46.8027 102.508 46.9525 102.463C46.3682 93.4491 45.9787 84.5101 45.6791 75.7807C45.6192 61.9903 45.6791 48.1999 45.8888 34.3796C50.8927 33.1518 55.9115 31.9539 60.9304 30.786C67.3126 43.0342 73.5749 55.3122 79.7174 67.6502C83.3729 75.4662 86.9835 83.7465 90.639 92.0117C90.8188 91.9668 91.0135 91.9368 91.1933 91.8919C90.5491 82.9678 89.9648 74.1336 89.4554 65.524C88.9311 51.9732 88.4966 38.4074 88.137 24.8267C93.6952 23.6887 99.2534 22.5807 104.827 21.5176C104.482 49.4277 104.557 77.3229 105.021 105.158C98.2496 106.551 91.4929 108.003 84.7362 109.53C78.7136 97.0427 72.5561 84.585 66.2938 72.1721C63.4473 66.2427 60.7206 60.4031 58.2037 54.5037C58.0539 54.5336 57.8891 54.5785 57.7393 54.6085C58.0539 61.032 58.3835 67.4406 58.5333 74.0138C58.6532 87.8941 58.8929 101.759 59.2525 115.61C52.6456 117.287 46.0536 119.023 39.4617 120.82C27.0869 95.8898 14.2926 71.0641 1.09375 46.4031Z" stroke="#E1DFE8"/>
<path d="M117.756 17.969C135.854 14.7498 153.996 11.9947 172.199 9.67383C172.783 14.2107 173.353 18.7626 173.937 23.2995C161.817 24.8417 149.727 26.5936 137.651 28.5401C138.655 34.769 139.659 41.0129 140.663 47.2417C150.745 45.6097 160.843 44.1273 170.956 42.7947C171.555 47.3316 172.154 51.8685 172.768 56.4204C162.791 57.738 152.813 59.2054 142.865 60.8075C144.034 68.0246 145.187 75.2417 146.356 82.4589C158.251 80.5423 170.162 78.8353 182.087 77.323C182.656 81.8599 183.241 86.4118 183.81 90.9487C166.536 93.1348 149.292 95.7401 132.123 98.7947C127.329 71.8578 122.55 44.9059 117.756 17.969Z" stroke="#E1DFE8"/>
<path d="M191.57 7.36841C197.518 6.70958 203.451 6.11065 209.398 5.55664C211.526 28.2411 213.653 50.9256 215.796 73.6101C227.152 72.547 238.538 71.6636 249.909 70.9599C250.193 75.5267 250.463 80.0935 250.748 84.6754C233.983 85.7085 217.249 87.131 200.544 88.9727C197.548 61.7812 194.567 34.5748 191.57 7.38338V7.36841Z" stroke="#E1DFE8"/>
<path d="M261.324 1.88734C267.287 1.60285 273.25 1.37825 279.212 1.18359C279.931 23.9579 280.636 46.7323 281.355 69.5066C292.756 69.1472 304.142 68.9825 315.543 68.9825C315.543 73.5643 315.543 78.1462 315.543 82.713C298.763 82.698 281.984 83.0873 265.204 83.8809C263.916 56.5547 262.613 29.2135 261.324 1.88734Z" stroke="#E1DFE8"/>
<path d="M331.229 0.764321C337.311 0.854161 343.409 0.98892 349.491 1.18357C357.701 16.037 365.582 30.9654 373.102 45.9836C375.649 52.0328 378.136 58.0969 380.593 64.1761C380.788 64.1761 380.968 64.206 381.163 64.206C380.908 55.6413 380.174 44.7258 380.743 35.4274C381.402 24.5119 382.077 13.6114 382.736 2.69587C388.369 3.04026 394.002 3.42956 399.635 3.84881C397.568 31.1301 395.485 58.4114 393.418 85.7076C387.829 85.2884 382.226 84.8991 376.623 84.5697C369.507 69.4916 362.046 54.4884 354.256 39.575C351.544 33.6007 348.802 27.6413 346.001 21.682C345.806 21.682 345.611 21.682 345.401 21.667C345.986 30.5461 346.96 40.8777 346.675 50.2959C346.345 61.2563 346.016 72.2167 345.686 83.1771C340.458 83.0274 335.229 82.9076 329.985 82.8178C330.39 55.4616 330.794 28.1055 331.214 0.734375L331.229 0.764321Z" stroke="#E1DFE8"/>
<path d="M421.718 5.76562C439.966 7.5175 458.169 9.70359 476.341 12.3389C475.682 16.8758 475.023 21.3977 474.364 25.9346C462.273 24.1827 450.153 22.6255 438.033 21.263C437.329 27.5367 436.625 33.8105 435.921 40.0843C446.048 41.2223 456.176 42.495 466.274 43.9175C465.629 48.4544 465 52.9913 464.356 57.5282C454.378 56.1357 444.385 54.863 434.378 53.7549C433.569 61.017 432.745 68.294 431.936 75.556C443.891 76.8886 455.816 78.4309 467.727 80.1827C467.068 84.7196 466.393 89.2416 465.734 93.7785C448.49 91.248 431.202 89.1517 413.883 87.5047C416.49 60.2683 419.111 33.0319 421.718 5.79557V5.76562Z" stroke="#E1DFE8"/>
<path d="M478.603 85.1678C482.363 81.9485 486.169 78.7442 490.004 75.5699C495.113 81.9186 502.319 86.9047 509.585 88.2822C518.199 89.9143 523.503 87.279 524.656 81.6191C525.87 75.6448 521.136 72.7549 514.184 68.2929C510.708 66.0619 507.203 63.8458 503.682 61.6448C495.697 56.7335 488.071 48.7678 489.944 36.9539C492.011 23.7325 506.379 15.5121 524.372 18.9261C534.664 20.8726 544.177 26.6822 549.826 34.8277C546.155 37.5528 542.5 40.2929 538.889 43.048C534.275 37.6726 528.956 34.1239 521.75 32.7613C514.064 31.3089 508.656 33.6298 507.712 38.9752C506.693 44.7549 512.386 47.8993 519.173 52.017C522.634 54.218 526.08 56.4341 529.51 58.6801C539.084 64.7891 544.462 72.4704 541.915 84.0298C538.994 97.1314 525.45 105.741 506.619 102.177C495.682 100.111 485.479 94.017 478.588 85.1977L478.603 85.1678Z" stroke="#E1DFE8"/>
<path d="M548.298 98.584C552.283 95.6343 556.298 92.6995 560.343 89.7797C565.032 96.4728 571.909 101.923 579.1 103.795C587.625 106.011 593.108 103.735 594.636 98.1797C596.239 92.3102 591.715 89.1059 585.033 84.1648C581.692 81.6942 578.351 79.2386 574.965 76.8129C567.295 71.3626 560.193 62.9027 562.875 51.2386C565.826 38.1819 580.763 30.9648 598.546 35.5915C608.719 38.2418 617.873 44.6952 622.981 53.2001C619.116 55.6557 615.281 58.1412 611.475 60.6418C607.206 54.9669 602.127 51.0589 595.011 49.2022C587.415 47.2257 581.842 49.1722 580.538 54.4428C579.13 60.1476 584.628 63.6664 591.145 68.2332C594.471 70.6738 597.767 73.1145 601.048 75.5851C610.232 82.338 615.101 90.3637 611.775 101.743C607.97 114.62 593.827 122.272 575.22 117.435C564.418 114.635 554.605 107.852 548.298 98.584Z" stroke="#E1DFE8"/>
<path d="M1.09375 46.8231C6.96655 45.1161 12.8394 43.4691 18.7271 41.8519C24.57 54.115 30.3229 66.4081 36.001 78.7311C39.4767 86.7418 43.0273 94.7525 46.5031 103.003C46.6529 102.958 46.8027 102.928 46.9525 102.883C46.3682 93.869 45.9787 84.93 45.6791 76.2006C45.6192 62.4102 45.6791 48.6199 45.8888 34.7995C50.8927 33.5717 55.9115 32.3739 60.9304 31.206C67.3126 43.4541 73.5749 55.7322 79.7174 68.0701C83.3729 75.8862 86.9835 84.1664 90.639 92.4316C90.8188 92.3867 91.0135 92.3568 91.1933 92.3118C90.5491 83.3878 89.9648 74.5535 89.4554 65.9439C88.9311 52.3931 88.4966 38.8273 88.137 25.2466C93.6952 24.1086 99.2534 23.0006 104.827 21.9375C104.482 49.8477 104.557 77.7429 105.021 105.578C98.2496 106.971 91.4929 108.423 84.7362 109.95C78.7136 97.4626 72.5561 85.0049 66.2938 72.592C63.4473 66.6626 60.7206 60.8231 58.2037 54.9236C58.0539 54.9535 57.8891 54.9985 57.7393 55.0284C58.0539 61.4519 58.3835 67.8605 58.5333 74.4338C58.6532 88.314 58.8929 102.179 59.2525 116.029C52.6456 117.706 46.0536 119.443 39.4617 121.24C27.0869 96.3097 14.2926 71.484 1.09375 46.8231Z" stroke="#E1DFE8"/>
<path d="M117.756 18.3889C135.854 15.1697 153.996 12.4146 172.199 10.0938C172.783 14.6306 173.353 19.1825 173.937 23.7194C161.817 25.2617 149.727 27.0135 137.651 28.9601C138.655 35.1889 139.659 41.4328 140.663 47.6617C150.745 46.0296 160.843 44.5472 170.956 43.2146C171.555 47.7515 172.154 52.2884 172.768 56.8403C162.791 58.1579 152.813 59.6253 142.865 61.2274C144.034 68.4446 145.187 75.6617 146.356 82.8788C158.251 80.9622 170.162 79.2553 182.087 77.743C182.656 82.2798 183.241 86.8317 183.81 91.3686C166.536 93.5547 149.292 96.1601 132.123 99.2146C127.329 72.2777 122.55 45.3258 117.756 18.3889Z" stroke="#E1DFE8"/>
<path d="M191.57 7.78833C197.518 7.1295 203.451 6.53057 209.398 5.97656C211.526 28.6611 213.653 51.3455 215.796 74.03C227.152 72.9669 238.538 72.0835 249.909 71.3798C250.193 75.9466 250.463 80.5135 250.748 85.0953C233.983 86.1284 217.249 87.5509 200.544 89.3926C197.548 62.2012 194.567 34.9947 191.57 7.8033V7.78833Z" stroke="#E1DFE8"/>
<path d="M261.324 2.32288C267.287 2.03839 273.25 1.81379 279.212 1.61914C279.931 24.3935 280.636 47.1678 281.355 69.9421C292.756 69.5828 304.142 69.4181 315.543 69.4181C315.543 73.9999 315.543 78.5817 315.543 83.1486C298.763 83.1336 281.984 83.5229 265.204 84.3165C263.916 56.9903 262.613 29.6491 261.324 2.32288Z" stroke="#E1DFE8"/>
<path d="M331.229 1.18424C337.311 1.27408 343.409 1.40884 349.491 1.60349C357.701 16.457 365.582 31.3853 373.102 46.4035C375.649 52.4527 378.136 58.5169 380.593 64.596C380.788 64.596 380.968 64.626 381.163 64.626C380.908 56.0612 380.174 45.1457 380.743 35.8473C381.402 24.9318 382.077 14.0313 382.736 3.11579C388.369 3.46018 394.002 3.84948 399.635 4.26874C397.568 31.55 395.485 58.8313 393.418 86.1276C387.829 85.7083 382.226 85.319 376.623 84.9896C369.507 69.9115 362.046 54.9083 354.256 39.9949C351.544 34.0206 348.802 28.0612 346.001 22.1019C345.806 22.1019 345.611 22.1019 345.401 22.0869C345.986 30.9661 346.96 41.2976 346.675 50.7158C346.345 61.6762 346.016 72.6366 345.686 83.5971C340.458 83.4473 335.229 83.3276 329.985 83.2377C330.39 55.8816 330.794 28.5254 331.214 1.1543L331.229 1.18424Z" stroke="#E1DFE8"/>
<path d="M421.718 6.18555C439.966 7.93742 458.169 10.1235 476.341 12.7588C475.682 17.2957 475.023 21.8176 474.364 26.3545C462.273 24.6027 450.153 23.0454 438.033 21.6829C437.329 27.9567 436.625 34.2305 435.921 40.5043C446.048 41.6422 456.176 42.915 466.274 44.3374C465.629 48.8743 465 53.4112 464.356 57.9481C454.378 56.5556 444.385 55.2829 434.378 54.1749C433.569 61.4369 432.745 68.7139 431.936 75.9759C443.891 77.3085 455.816 78.8508 467.727 80.6027C467.068 85.1396 466.393 89.6615 465.734 94.1984C448.49 91.6679 431.202 89.5716 413.883 87.9246C416.49 60.6882 419.111 33.4519 421.718 6.21549V6.18555Z" stroke="#E1DFE8"/>
<path d="M478.603 85.6033C482.363 82.3841 486.169 79.1798 490.004 76.0054C495.113 82.3541 502.319 87.3402 509.585 88.7178C518.199 90.3498 523.503 87.7145 524.656 82.0546C525.87 76.0803 521.136 73.1905 514.184 68.7284C510.708 66.4974 507.203 64.2814 503.682 62.0803C495.697 57.1691 488.071 49.2033 489.944 37.3894C492.011 24.168 506.379 15.9477 524.372 19.3616C534.664 21.3081 544.177 27.1177 549.826 35.2632C546.155 37.9883 542.5 40.7284 538.889 43.4835C534.275 38.1081 528.956 34.5595 521.75 33.1969C514.064 31.7445 508.656 34.0653 507.712 39.4108C506.693 45.1905 512.386 48.3349 519.173 52.4525C522.634 54.6536 526.08 56.8696 529.51 59.1156C539.084 65.2247 544.462 72.906 541.915 84.4653C538.994 97.5669 525.45 106.177 506.619 102.613C495.682 100.547 485.479 94.4525 478.588 85.6333L478.603 85.6033Z" stroke="#E1DFE8"/>
<path d="M548.298 99.0196C552.283 96.0698 556.298 93.1351 560.343 90.2153C565.032 96.9083 571.909 102.359 579.1 104.23C587.625 106.446 593.108 104.17 594.636 98.6153C596.239 92.7458 591.715 89.5415 585.033 84.6003C581.692 82.1297 578.351 79.6741 574.965 77.2484C567.295 71.7982 560.193 63.3383 562.875 51.6741C565.826 38.6174 580.763 31.4003 598.546 36.027C608.719 38.6773 617.873 45.1308 622.981 53.6356C619.116 56.0912 615.281 58.5768 611.475 61.0773C607.206 55.4024 602.127 51.4944 595.011 49.6377C587.415 47.6613 581.842 49.6078 580.538 54.8784C579.13 60.5832 584.628 64.1019 591.145 68.6688C594.471 71.1094 597.767 73.55 601.048 76.0206C610.232 82.7736 615.101 90.7992 611.775 102.179C607.97 115.056 593.827 122.707 575.22 117.871C564.418 115.071 554.605 108.288 548.298 99.0196Z" stroke="#E1DFE8"/>
<path d="M1.09375 47.2567C6.96655 45.5497 12.8394 43.9026 18.7271 42.2855C24.57 54.5486 30.3229 66.8417 36.001 79.1647C39.4767 87.1754 43.0273 95.1861 46.5031 103.436C46.6529 103.391 46.8027 103.361 46.9525 103.317C46.3682 94.3026 45.9787 85.3636 45.6791 76.6342C45.6192 62.8438 45.6791 49.0534 45.8888 35.2331C50.8927 34.0053 55.9115 32.8075 60.9304 31.6395C67.3126 43.8877 73.5749 56.1657 79.7174 68.5037C83.3729 76.3198 86.9835 84.6 90.639 92.8652C90.8188 92.8203 91.0135 92.7903 91.1933 92.7454C90.5491 83.8214 89.9648 74.9871 89.4554 66.3775C88.9311 52.8267 88.4966 39.2609 88.137 25.6802C93.6952 24.5422 99.2534 23.4342 104.827 22.3711C104.482 50.2813 104.557 78.1764 105.021 106.012C98.2496 107.404 91.4929 108.857 84.7362 110.384C78.7136 97.8962 72.5561 85.4385 66.2938 73.0256C63.4473 67.0962 60.7206 61.2567 58.2037 55.3572C58.0539 55.3871 57.8891 55.4321 57.7393 55.462C58.0539 61.8855 58.3835 68.2941 58.5333 74.8674C58.6532 88.7476 58.8929 102.613 59.2525 116.463C52.6456 118.14 46.0536 119.877 39.4617 121.674C27.0869 96.7433 14.2926 71.9176 1.09375 47.2567Z" stroke="#E1DFE8"/>
<path d="M117.756 18.8206C135.854 15.6013 153.996 12.8462 172.199 10.5254C172.783 15.0623 173.353 19.6142 173.937 24.1511C161.817 25.6933 149.727 27.4452 137.651 29.3917C138.655 35.6206 139.659 41.8644 140.663 48.0933C150.745 46.4612 160.843 44.9789 170.956 43.6462C171.555 48.1831 172.154 52.72 172.768 57.2719C162.791 58.5896 152.813 60.0569 142.865 61.6591C144.034 68.8762 145.187 76.0933 146.356 83.3104C158.251 81.3938 170.162 79.6869 182.087 78.1746C182.656 82.7115 183.241 87.2634 183.81 91.8003C166.536 93.9864 149.292 96.5917 132.123 99.6463C127.329 72.7094 122.55 45.7575 117.756 18.8206Z" stroke="#E1DFE8"/>
<path d="M191.57 8.21997C197.518 7.56114 203.451 6.96221 209.398 6.4082C211.526 29.0927 213.653 51.7772 215.796 74.4617C227.152 73.3986 238.538 72.5152 249.909 71.8114C250.193 76.3783 250.463 80.9451 250.748 85.5269C233.983 86.5601 217.249 87.9825 200.544 89.8242C197.548 62.6328 194.567 35.4264 191.57 8.23494V8.21997Z" stroke="#E1DFE8"/>
<path d="M261.324 2.74085C267.287 2.45636 273.25 2.23176 279.212 2.03711C279.931 24.8114 280.636 47.5858 281.355 70.3601C292.756 70.0007 304.142 69.836 315.543 69.836C315.543 74.4179 315.543 78.9997 315.543 83.5665C298.763 83.5516 281.984 83.9409 265.204 84.7344C263.916 57.4082 262.613 30.0671 261.324 2.74085Z" stroke="#E1DFE8"/>
<path d="M331.229 1.60221C337.311 1.69205 343.409 1.82681 349.491 2.02146C357.701 16.8749 365.582 31.8033 373.102 46.8215C375.649 52.8707 378.136 58.9348 380.593 65.014C380.788 65.014 380.968 65.0439 381.163 65.0439C380.908 56.4792 380.174 45.5637 380.743 36.2653C381.402 25.3498 382.077 14.4493 382.736 3.53376C388.369 3.87815 394.002 4.26745 399.635 4.6867C397.568 31.968 395.485 59.2493 393.418 86.5455C387.829 86.1263 382.226 85.737 376.623 85.4076C369.507 70.3295 362.046 55.3263 354.256 40.4129C351.544 34.4386 348.802 28.4792 346.001 22.5199C345.806 22.5199 345.611 22.5199 345.401 22.5049C345.986 31.384 346.96 41.7156 346.675 51.1338C346.345 62.0942 346.016 73.0546 345.686 84.015C340.458 83.8653 335.229 83.7455 329.985 83.6557C330.39 56.2995 330.794 28.9434 331.214 1.57227L331.229 1.60221Z" stroke="#E1DFE8"/>
<path d="M421.718 6.60352C439.966 8.35539 458.169 10.5415 476.341 13.1768C475.682 17.7137 475.023 22.2356 474.364 26.7725C462.273 25.0206 450.153 23.4634 438.033 22.1008C437.329 28.3746 436.625 34.6484 435.921 40.9222C446.048 42.0602 456.176 43.3329 466.274 44.7554C465.629 49.2923 465 53.8292 464.356 58.3661C454.378 56.9736 444.385 55.7008 434.378 54.5928C433.569 61.8549 432.745 69.1319 431.936 76.3939C443.891 77.7265 455.816 79.2688 467.727 81.0206C467.068 85.5575 466.393 90.0795 465.734 94.6164C448.49 92.0859 431.202 89.9896 413.883 88.3426C416.49 61.1062 419.111 33.8698 421.718 6.63346V6.60352Z" stroke="#E1DFE8"/>
<path d="M478.603 86.0213C482.363 82.802 486.169 79.5978 490.004 76.4234C495.113 82.7721 502.319 87.7582 509.585 89.1357C518.199 90.7678 523.503 88.1325 524.656 82.4726C525.87 76.4983 521.136 73.6084 514.184 69.1464C510.708 66.9154 507.203 64.6994 503.682 62.4983C495.697 57.5871 488.071 49.6213 489.944 37.8074C492.011 24.586 506.379 16.3657 524.372 19.7796C534.664 21.7261 544.177 27.5357 549.826 35.6812C546.155 38.4063 542.5 41.1464 538.889 43.9015C534.275 38.5261 528.956 34.9774 521.75 33.6149C514.064 32.1625 508.656 34.4833 507.712 39.8288C506.693 45.6084 512.386 48.7528 519.173 52.8705C522.634 55.0715 526.08 57.2876 529.51 59.5336C539.084 65.6427 544.462 73.324 541.915 84.8833C538.994 97.9849 525.45 106.595 506.619 103.031C495.682 100.965 485.479 94.8705 478.588 86.0512L478.603 86.0213Z" stroke="#E1DFE8"/>
<path d="M548.298 99.4375C552.283 96.4878 556.298 93.553 560.343 90.6332C565.032 97.3263 571.909 102.777 579.1 104.648C587.625 106.864 593.108 104.588 594.636 99.0332C596.239 93.1637 591.715 89.9594 585.033 85.0183C581.692 82.5477 578.351 80.0921 574.965 77.6664C567.295 72.2161 560.193 63.7562 562.875 52.0921C565.826 39.0354 580.763 31.8183 598.546 36.445C608.719 39.0953 617.873 45.5488 622.981 54.0536C619.116 56.5092 615.281 58.9947 611.475 61.4953C607.206 55.8204 602.127 51.9124 595.011 50.0557C587.415 48.0792 581.842 50.0258 580.538 55.2963C579.13 61.0012 584.628 64.5199 591.145 69.0867C594.471 71.5274 597.767 73.968 601.048 76.4386C610.232 83.1915 615.101 91.2172 611.775 102.597C607.97 115.474 593.827 123.125 575.22 118.289C564.418 115.489 554.605 108.706 548.298 99.4375Z" stroke="#E1DFE8"/>
<path d="M1.09375 47.6766C6.96655 45.9696 12.8394 44.3226 18.7271 42.7055C24.57 54.9686 30.3229 67.2616 36.001 79.5846C39.4767 87.5953 43.0273 95.606 46.5031 103.856C46.6529 103.811 46.8027 103.781 46.9525 103.736C46.3682 94.7226 45.9787 85.7835 45.6791 77.0541C45.6192 63.2637 45.6791 49.4734 45.8888 35.653C50.8927 34.4252 55.9115 33.2274 60.9304 32.0595C67.3126 44.3076 73.5749 56.5857 79.7174 68.9236C83.3729 76.7397 86.9835 85.0199 90.639 93.2851C90.8188 93.2402 91.0135 93.2103 91.1933 93.1653C90.5491 84.2413 89.9648 75.4071 89.4554 66.7974C88.9311 53.2466 88.4966 39.6809 88.137 26.1001C93.6952 24.9621 99.2534 23.8541 104.827 22.791C104.482 50.7012 104.557 78.5964 105.021 106.432C98.2496 107.824 91.4929 109.277 84.7362 110.804C78.7136 98.3161 72.5561 85.8584 66.2938 73.4456C63.4473 67.5161 60.7206 61.6766 58.2037 55.7771C58.0539 55.8071 57.8891 55.852 57.7393 55.8819C58.0539 62.3055 58.3835 68.714 58.5333 75.2873C58.6532 89.1675 58.8929 103.033 59.2525 116.883C52.6456 118.56 46.0536 120.297 39.4617 122.094C27.0869 97.1632 14.2926 72.3375 1.09375 47.6766Z" stroke="#E1DFE8"/>
<path d="M117.756 19.2425C135.854 16.0232 153.996 13.2681 172.199 10.9473C172.783 15.4842 173.353 20.036 173.937 24.5729C161.817 26.1152 149.727 27.8671 137.651 29.8136C138.655 36.0425 139.659 42.2863 140.663 48.5152C150.745 46.8831 160.843 45.4007 170.956 44.0681C171.555 48.605 172.154 53.1419 172.768 57.6938C162.791 59.0114 152.813 60.4788 142.865 62.081C144.034 69.2981 145.187 76.5152 146.356 83.7323C158.251 81.8157 170.162 80.1088 182.087 78.5965C182.656 83.1334 183.241 87.6852 183.81 92.2221C166.536 94.4082 149.292 97.0136 132.123 100.068C127.329 73.1312 122.55 46.1794 117.756 19.2425Z" stroke="#E1DFE8"/>
<path d="M191.57 8.64184C197.518 7.98302 203.451 7.38409 209.398 6.83008C211.526 29.5146 213.653 52.1991 215.796 74.8836C227.152 73.8205 238.538 72.937 249.909 72.2333C250.193 76.8001 250.463 81.367 250.748 85.9488C233.983 86.982 217.249 88.4044 200.544 90.2461C197.548 63.0547 194.567 35.8483 191.57 8.65682V8.64184Z" stroke="#E1DFE8"/>
<path d="M261.324 3.16077C267.287 2.87628 273.25 2.65168 279.212 2.45703C279.931 25.2314 280.636 48.0057 281.355 70.78C292.756 70.4207 304.142 70.256 315.543 70.256C315.543 74.8378 315.543 79.4196 315.543 83.9864C298.763 83.9715 281.984 84.3608 265.204 85.1544C263.916 57.8282 262.613 30.487 261.324 3.16077Z" stroke="#E1DFE8"/>
<path d="M331.229 2.03776C337.311 2.1276 343.409 2.26236 349.491 2.45701C357.701 17.3105 365.582 32.2388 373.102 47.257C375.649 53.3062 378.136 59.3704 380.593 65.4495C380.788 65.4495 380.968 65.4795 381.163 65.4795C380.908 56.9148 380.174 45.9993 380.743 36.7009C381.402 25.7854 382.077 14.8848 382.736 3.96931C388.369 4.31369 394.002 4.703 399.635 5.12225C397.568 32.4035 395.485 59.6848 393.418 86.9811C387.829 86.5618 382.226 86.1725 376.623 85.8431C369.507 70.765 362.046 55.7618 354.256 40.8485C351.544 34.8741 348.802 28.9148 346.001 22.9554C345.806 22.9554 345.611 22.9554 345.401 22.9404C345.986 31.8196 346.96 42.1511 346.675 51.5693C346.345 62.5297 346.016 73.4902 345.686 84.4506C340.458 84.3009 335.229 84.1811 329.985 84.0912C330.39 56.7351 330.794 29.3789 331.214 2.00781L331.229 2.03776Z" stroke="#E1DFE8"/>
<path d="M421.718 7.03906C439.966 8.79093 458.169 10.977 476.341 13.6123C475.682 18.1492 475.023 22.6711 474.364 27.208C462.273 25.4562 450.153 23.899 438.033 22.5364C437.329 28.8102 436.625 35.084 435.921 41.3578C446.048 42.4958 456.176 43.7685 466.274 45.1909C465.629 49.7278 465 54.2647 464.356 58.8016C454.378 57.4091 444.385 56.1364 434.378 55.0284C433.569 62.2904 432.745 69.5674 431.936 76.8294C443.891 78.1621 455.816 79.7043 467.727 81.4562C467.068 85.9931 466.393 90.515 465.734 95.0519C448.49 92.5214 431.202 90.4252 413.883 88.7781C416.49 61.5417 419.111 34.3054 421.718 7.06901V7.03906Z" stroke="#E1DFE8"/>
<path d="M478.603 86.4412C482.363 83.2219 486.169 80.0177 490.004 76.8433C495.113 83.192 502.319 88.1781 509.585 89.5556C518.199 91.1877 523.503 88.5524 524.656 82.8925C525.87 76.9182 521.136 74.0284 514.184 69.5663C510.708 67.3353 507.203 65.1193 503.682 62.9182C495.697 58.007 488.071 50.0412 489.944 38.2273C492.011 25.0059 506.379 16.7856 524.372 20.1995C534.664 22.146 544.177 27.9556 549.826 36.1011C546.155 38.8262 542.5 41.5663 538.889 44.3214C534.275 38.946 528.956 35.3973 521.75 34.0348C514.064 32.5824 508.656 34.9032 507.712 40.2487C506.693 46.0284 512.386 49.1727 519.173 53.2904C522.634 55.4915 526.08 57.7075 529.51 59.9535C539.084 66.0626 544.462 73.7439 541.915 85.3032C538.994 98.4048 525.45 107.014 506.619 103.451C495.682 101.385 485.479 95.2904 478.588 86.4711L478.603 86.4412Z" stroke="#E1DFE8"/>
<path d="M548.298 99.8575C552.283 96.9077 556.298 93.973 560.343 91.0532C565.032 97.7462 571.909 103.196 579.1 105.068C587.625 107.284 593.108 105.008 594.636 99.4532C596.239 93.5836 591.715 90.3794 585.033 85.4382C581.692 82.9676 578.351 80.512 574.965 78.0863C567.295 72.6361 560.193 64.1762 562.875 52.512C565.826 39.4553 580.763 32.2382 598.546 36.8649C608.719 39.5152 617.873 45.9687 622.981 54.4735C619.116 56.9291 615.281 59.4147 611.475 61.9152C607.206 56.2403 602.127 52.3323 595.011 50.4756C587.415 48.4992 581.842 50.4457 580.538 55.7163C579.13 61.4211 584.628 64.9398 591.145 69.5066C594.471 71.9473 597.767 74.3879 601.048 76.8585C610.232 83.6115 615.101 91.6371 611.775 103.017C607.97 115.894 593.827 123.545 575.22 118.709C564.418 115.909 554.605 109.126 548.298 99.8575Z" stroke="#E1DFE8"/>
<path d="M1.09375 48.0945C6.96655 46.3876 12.8394 44.7405 18.7271 43.1234C24.57 55.3865 30.3229 67.6796 36.001 80.0026C39.4767 88.0133 43.0273 96.024 46.5031 104.274C46.6529 104.229 46.8027 104.199 46.9525 104.154C46.3682 95.1405 45.9787 86.2015 45.6791 77.4721C45.6192 63.6817 45.6791 49.8913 45.8888 36.071C50.8927 34.8432 55.9115 33.6453 60.9304 32.4774C67.3126 44.7256 73.5749 57.0036 79.7174 69.3416C83.3729 77.1577 86.9835 85.4379 90.639 93.7031C90.8188 93.6582 91.0135 93.6282 91.1933 93.5833C90.5491 84.6593 89.9648 75.825 89.4554 67.2154C88.9311 53.6646 88.4966 40.0988 88.137 26.5181C93.6952 25.3801 99.2534 24.2721 104.827 23.209C104.482 51.1191 104.557 79.0143 105.021 106.85C98.2496 108.242 91.4929 109.695 84.7362 111.222C78.7136 98.7341 72.5561 86.2764 66.2938 73.8635C63.4473 67.9341 60.7206 62.0945 58.2037 56.1951C58.0539 56.225 57.8891 56.2699 57.7393 56.2999C58.0539 62.7234 58.3835 69.132 58.5333 75.7052C58.6532 89.5855 58.8929 103.451 59.2525 117.301C52.6456 118.978 46.0536 120.715 39.4617 122.512C27.0869 97.5812 14.2926 72.7555 1.09375 48.0945Z" stroke="#E1DFE8"/>
<path d="M117.756 19.6604C135.854 16.4412 153.996 13.6861 172.199 11.3652C172.783 15.9021 173.353 20.454 173.937 24.9909C161.817 26.5331 149.727 28.285 137.651 30.2315C138.655 36.4604 139.659 42.7043 140.663 48.9332C150.745 47.3011 160.843 45.8187 170.956 44.4861C171.555 49.023 172.154 53.5599 172.768 58.1118C162.791 59.4294 152.813 60.8968 142.865 62.4989C144.034 69.716 145.187 76.9332 146.356 84.1503C158.251 82.2337 170.162 80.5267 182.087 79.0144C182.656 83.5513 183.241 88.1032 183.81 92.6401C166.536 94.8262 149.292 97.4315 132.123 100.486C127.329 73.5492 122.55 46.5973 117.756 19.6604Z" stroke="#E1DFE8"/>
<path d="M191.57 9.05981C197.518 8.40099 203.451 7.80206 209.398 7.24805C211.526 29.9325 213.653 52.617 215.796 75.3015C227.152 74.2384 238.538 73.355 249.909 72.6513C250.193 77.2181 250.463 81.7849 250.748 86.3668C233.983 87.3999 217.249 88.8224 200.544 90.6641C197.548 63.4726 194.567 36.2662 191.57 9.07478V9.05981Z" stroke="#E1DFE8"/>
<path d="M261.324 3.59437C267.287 3.30988 273.25 3.08528 279.212 2.89062C279.931 25.665 280.636 48.4393 281.355 71.2136C292.756 70.8543 304.142 70.6896 315.543 70.6896C315.543 75.2714 315.543 79.8532 315.543 84.42C298.763 84.4051 281.984 84.7944 265.204 85.588C263.916 58.2617 262.613 30.9206 261.324 3.59437Z" stroke="#E1DFE8"/>
<path d="M331.229 2.45573C337.311 2.54557 343.409 2.68033 349.491 2.87498C357.701 17.7285 365.582 32.6568 373.102 47.675C375.649 53.7242 378.136 59.7883 380.593 65.8675C380.788 65.8675 380.968 65.8974 381.163 65.8974C380.908 57.3327 380.174 46.4172 380.743 37.1188C381.402 26.2033 382.077 15.3028 382.736 4.38728C388.369 4.73166 394.002 5.12097 399.635 5.54022C397.568 32.8215 395.485 60.1028 393.418 87.399C387.829 86.9798 382.226 86.5905 376.623 86.2611C369.507 71.183 362.046 56.1798 354.256 41.2664C351.544 35.2921 348.802 29.3327 346.001 23.3734C345.806 23.3734 345.611 23.3734 345.401 23.3584C345.986 32.2375 346.96 42.5691 346.675 51.9873C346.345 62.9477 346.016 73.9081 345.686 84.8686C340.458 84.7188 335.229 84.599 329.985 84.5092C330.39 57.1531 330.794 29.7969 331.214 2.42578L331.229 2.45573Z" stroke="#E1DFE8"/>
<path d="M421.718 7.45703C439.966 9.2089 458.169 11.395 476.341 14.0303C475.682 18.5672 475.023 23.0891 474.364 27.626C462.273 25.8741 450.153 24.3169 438.033 22.9544C437.329 29.2282 436.625 35.502 435.921 41.7757C446.048 42.9137 456.176 44.1864 466.274 45.6089C465.629 50.1458 465 54.6827 464.356 59.2196C454.378 57.8271 444.385 56.5544 434.378 55.4463C433.569 62.7084 432.745 69.9854 431.936 77.2474C443.891 78.58 455.816 80.1223 467.727 81.8741C467.068 86.411 466.393 90.933 465.734 95.4699C448.49 92.9394 431.202 90.8431 413.883 89.1961C416.49 61.9597 419.111 34.7233 421.718 7.48698V7.45703Z" stroke="#E1DFE8"/>
<path d="M478.603 86.8748C482.363 83.6555 486.169 80.4513 490.004 77.2769C495.113 83.6256 502.319 88.6117 509.585 89.9892C518.199 91.6213 523.503 88.986 524.656 83.3261C525.87 77.3518 521.136 74.462 514.184 69.9999C510.708 67.7689 507.203 65.5529 503.682 63.3518C495.697 58.4406 488.071 50.4748 489.944 38.6609C492.011 25.4395 506.379 17.2192 524.372 20.6331C534.664 22.5796 544.177 28.3892 549.826 36.5347C546.155 39.2598 542.5 41.9999 538.889 44.755C534.275 39.3796 528.956 35.8309 521.75 34.4684C514.064 33.016 508.656 35.3368 507.712 40.6823C506.693 46.462 512.386 49.6063 519.173 53.724C522.634 55.9251 526.08 58.1411 529.51 60.3871C539.084 66.4962 544.462 74.1775 541.915 85.7368C538.994 98.8384 525.45 107.448 506.619 103.884C495.682 101.818 485.479 95.724 478.588 86.9047L478.603 86.8748Z" stroke="#E1DFE8"/>
<path d="M548.298 100.291C552.283 97.3413 556.298 94.4065 560.343 91.4868C565.032 98.1798 571.909 103.63 579.1 105.502C587.625 107.718 593.108 105.442 594.636 99.8868C596.239 94.0172 591.715 90.813 585.033 85.8718C581.692 83.4012 578.351 80.9456 574.965 78.5199C567.295 73.0696 560.193 64.6098 562.875 52.9456C565.826 39.8889 580.763 32.6718 598.546 37.2985C608.719 39.9488 617.873 46.4023 622.981 54.9071C619.116 57.3627 615.281 59.8483 611.475 62.3488C607.206 56.6739 602.127 52.7659 595.011 50.9092C587.415 48.9328 581.842 50.8793 580.538 56.1499C579.13 61.8547 584.628 65.3734 591.145 69.9402C594.471 72.3809 597.767 74.8215 601.048 77.2921C610.232 84.0451 615.101 92.0707 611.775 103.45C607.97 116.327 593.827 123.979 575.22 119.142C564.418 116.342 554.605 109.559 548.298 100.291Z" stroke="#E1DFE8"/>
<path d="M1.09375 48.5301C6.96655 46.8231 12.8394 45.1761 18.7271 43.559C24.57 55.8221 30.3229 68.1151 36.001 80.4381C39.4767 88.4488 43.0273 96.4595 46.5031 104.71C46.6529 104.665 46.8027 104.635 46.9525 104.59C46.3682 95.5761 45.9787 86.637 45.6791 77.9076C45.6192 64.1173 45.6791 50.3269 45.8888 36.5066C50.8927 35.2788 55.9115 34.0809 60.9304 32.913C67.3126 45.1611 73.5749 57.4392 79.7174 69.7771C83.3729 77.5932 86.9835 85.8734 90.639 94.1386C90.8188 94.0937 91.0135 94.0638 91.1933 94.0189C90.5491 85.0948 89.9648 76.2606 89.4554 67.6509C88.9311 54.1001 88.4966 40.5344 88.137 26.9536C93.6952 25.8157 99.2534 24.7076 104.827 23.6445C104.482 51.5547 104.557 79.4499 105.021 107.285C98.2496 108.678 91.4929 110.13 84.7362 111.657C78.7136 99.1697 72.5561 86.7119 66.2938 74.2991C63.4473 68.3697 60.7206 62.5301 58.2037 56.6306C58.0539 56.6606 57.8891 56.7055 57.7393 56.7354C58.0539 63.159 58.3835 69.5675 58.5333 76.1408C58.6532 90.021 58.8929 103.886 59.2525 117.737C52.6456 119.414 46.0536 121.15 39.4617 122.947C27.0869 98.0167 14.2926 73.1911 1.09375 48.5301Z" stroke="#E1DFE8"/>
<path d="M117.756 20.094C135.854 16.8748 153.996 14.1197 172.199 11.7988C172.783 16.3357 173.353 20.8876 173.937 25.4245C161.817 26.9667 149.727 28.7186 137.651 30.6651C138.655 36.894 139.659 43.1379 140.663 49.3667C150.745 47.7347 160.843 46.2523 170.956 44.9197C171.555 49.4566 172.154 53.9935 172.768 58.5453C162.791 59.863 152.813 61.3304 142.865 62.9325C144.034 70.1496 145.187 77.3667 146.356 84.5839C158.251 82.6673 170.162 80.9603 182.087 79.448C182.656 83.9849 183.241 88.5368 183.81 93.0737C166.536 95.2598 149.292 97.8651 132.123 100.92C127.329 73.9828 122.55 47.0309 117.756 20.094Z" stroke="#E1DFE8"/>
<path d="M191.57 9.49341C197.518 8.83458 203.451 8.23565 209.398 7.68164C211.526 30.3661 213.653 53.0506 215.796 75.7351C227.152 74.672 238.538 73.7886 249.909 73.0849C250.193 77.6517 250.463 82.2185 250.748 86.8004C233.983 87.8335 217.249 89.256 200.544 91.0977C197.548 63.9062 194.567 36.6998 191.57 9.50838V9.49341Z" stroke="#E1DFE8"/>
<path d="M261.324 4.01429C267.287 3.7298 273.25 3.5052 279.212 3.31055C279.931 26.0849 280.636 48.8592 281.355 71.6335C292.756 71.2742 304.142 71.1095 315.543 71.1095C315.543 75.6913 315.543 80.2731 315.543 84.84C298.763 84.825 281.984 85.2143 265.204 86.0079C263.916 58.6817 262.613 31.3405 261.324 4.01429Z" stroke="#E1DFE8"/>
<path d="M331.229 2.87565C337.311 2.96549 343.409 3.10025 349.491 3.2949C357.701 18.1484 365.582 33.0767 373.102 48.0949C375.649 54.1441 378.136 60.2083 380.593 66.2874C380.788 66.2874 380.968 66.3174 381.163 66.3174C380.908 57.7527 380.174 46.8371 380.743 37.5387C381.402 26.6232 382.077 15.7227 382.736 4.8072C388.369 5.15159 394.002 5.54089 399.635 5.96014C397.568 33.2414 395.485 60.5227 393.418 87.819C387.829 87.3997 382.226 87.0104 376.623 86.681C369.507 71.6029 362.046 56.5997 354.256 41.6863C351.544 35.712 348.802 29.7527 346.001 23.7933C345.806 23.7933 345.611 23.7933 345.401 23.7783C345.986 32.6575 346.96 42.989 346.675 52.4072C346.345 63.3676 346.016 74.328 345.686 85.2885C340.458 85.1387 335.229 85.019 329.985 84.9291C330.39 57.573 330.794 30.2168 331.214 2.8457L331.229 2.87565Z" stroke="#E1DFE8"/>
<path d="M421.718 7.87695C439.966 9.62882 458.169 11.8149 476.341 14.4502C475.682 18.9871 475.023 23.509 474.364 28.0459C462.273 26.2941 450.153 24.7368 438.033 23.3743C437.329 29.6481 436.625 35.9219 435.921 42.1957C446.048 43.3336 456.176 44.6064 466.274 46.0288C465.629 50.5657 465 55.1026 464.356 59.6395C454.378 58.247 444.385 56.9743 434.378 55.8663C433.569 63.1283 432.745 70.4053 431.936 77.6673C443.891 79 455.816 80.5422 467.727 82.2941C467.068 86.831 466.393 91.3529 465.734 95.8898C448.49 93.3593 431.202 91.263 413.883 89.616C416.49 62.3796 419.111 35.1433 421.718 7.9069V7.87695Z" stroke="#E1DFE8"/>
<path d="M478.603 87.2947C482.363 84.0755 486.169 80.8712 490.004 77.6969C495.113 84.0455 502.319 89.0316 509.585 90.4092C518.199 92.0412 523.503 89.4059 524.656 83.7461C525.87 77.7717 521.136 74.8819 514.184 70.4198C510.708 68.1888 507.203 65.9728 503.682 63.7717C495.697 58.8605 488.071 50.8947 489.944 39.0808C492.011 25.8594 506.379 17.6391 524.372 21.053C534.664 22.9995 544.177 28.8092 549.826 36.9546C546.155 39.6797 542.5 42.4199 538.889 45.1749C534.275 39.7995 528.956 36.2509 521.75 34.8883C514.064 33.4359 508.656 35.7567 507.712 41.1022C506.693 46.8819 512.386 50.0263 519.173 54.1439C522.634 56.345 526.08 58.561 529.51 60.807C539.084 66.9161 544.462 74.5974 541.915 86.1568C538.994 99.2584 525.45 107.868 506.619 104.304C495.682 102.238 485.479 96.1439 478.588 87.3247L478.603 87.2947Z" stroke="#E1DFE8"/>
<path d="M548.298 100.711C552.283 97.7612 556.298 94.8265 560.343 91.9067C565.032 98.5997 571.909 104.05 579.1 105.922C587.625 108.138 593.108 105.862 594.636 100.307C596.239 94.4372 591.715 91.2329 585.033 86.2917C581.692 83.8211 578.351 81.3655 574.965 78.9398C567.295 73.4896 560.193 65.0297 562.875 53.3655C565.826 40.3088 580.763 33.0917 598.546 37.7184C608.719 40.3687 617.873 46.8222 622.981 55.327C619.116 57.7826 615.281 60.2682 611.475 62.7687C607.206 57.0938 602.127 53.1858 595.011 51.3291C587.415 49.3527 581.842 51.2992 580.538 56.5698C579.13 62.2746 584.628 65.7933 591.145 70.3602C594.471 72.8008 597.767 75.2414 601.048 77.712C610.232 84.465 615.101 92.4906 611.775 103.87C607.97 116.747 593.827 124.399 575.22 119.562C564.418 116.762 554.605 109.979 548.298 100.711Z" stroke="#E1DFE8"/>
<path d="M1.09375 48.9481C6.96655 47.2411 12.8394 45.5941 18.7271 43.9769C24.57 56.24 30.3229 68.5331 36.001 80.8561C39.4767 88.8668 43.0273 96.8775 46.5031 105.128C46.6529 105.083 46.8027 105.053 46.9525 105.008C46.3682 95.994 45.9787 87.055 45.6791 78.3256C45.6192 64.5352 45.6791 50.7449 45.8888 36.9245C50.8927 35.6967 55.9115 34.4989 60.9304 33.331C67.3126 45.5791 73.5749 57.8572 79.7174 70.1951C83.3729 78.0112 86.9835 86.2914 90.639 94.5566C90.8188 94.5117 91.0135 94.4818 91.1933 94.4368C90.5491 85.5128 89.9648 76.6785 89.4554 68.0689C88.9311 54.5181 88.4966 40.9523 88.137 27.3716C93.6952 26.2336 99.2534 25.1256 104.827 24.0625C104.482 51.9727 104.557 79.8679 105.021 107.703C98.2496 109.096 91.4929 110.548 84.7362 112.075C78.7136 99.5876 72.5561 87.1299 66.2938 74.717C63.4473 68.7876 60.7206 62.9481 58.2037 57.0486C58.0539 57.0785 57.8891 57.1235 57.7393 57.1534C58.0539 63.5769 58.3835 69.9855 58.5333 76.5588C58.6532 90.439 58.8929 104.304 59.2525 118.154C52.6456 119.831 46.0536 121.568 39.4617 123.365C27.0869 98.4347 14.2926 73.609 1.09375 48.9481Z" stroke="#E1DFE8"/>
<path d="M117.756 20.5139C135.854 17.2947 153.996 14.5396 172.199 12.2188C172.783 16.7556 173.353 21.3075 173.937 25.8444C161.817 27.3867 149.727 29.1385 137.651 31.0851C138.655 37.3139 139.659 43.5578 140.663 49.7867C150.745 48.1546 160.843 46.6722 170.956 45.3396C171.555 49.8765 172.154 54.4134 172.768 58.9653C162.791 60.2829 152.813 61.7503 142.865 63.3524C144.034 70.5696 145.187 77.7867 146.356 85.0038C158.251 83.0872 170.162 81.3803 182.087 79.868C182.656 84.4048 183.241 88.9567 183.81 93.4936C166.536 95.6797 149.292 98.2851 132.123 101.34C127.329 74.4027 122.55 47.4508 117.756 20.5139Z" stroke="#E1DFE8"/>
<path d="M191.57 9.91333C197.518 9.2545 203.451 8.65557 209.398 8.10156C211.526 30.7861 213.653 53.4705 215.796 76.155C227.152 75.0919 238.538 74.2085 249.909 73.5048C250.193 78.0716 250.463 82.6385 250.748 87.2203C233.983 88.2534 217.249 89.6759 200.544 91.5176C197.548 64.3262 194.567 37.1197 191.57 9.9283V9.91333Z" stroke="#E1DFE8"/>
<path d="M261.324 4.43226C267.287 4.14777 273.25 3.92317 279.212 3.72852C279.931 26.5028 280.636 49.2772 281.355 72.0515C292.756 71.6922 304.142 71.5274 315.543 71.5274C315.543 76.1093 315.543 80.6911 315.543 85.2579C298.763 85.243 281.984 85.6323 265.204 86.4258C263.916 59.0996 262.613 31.7585 261.324 4.43226Z" stroke="#E1DFE8"/>
<path d="M331.229 3.30924C337.311 3.39908 343.409 3.53384 349.491 3.72849C357.701 18.582 365.582 33.5103 373.102 48.5285C375.649 54.5777 378.136 60.6419 380.593 66.721C380.788 66.721 380.968 66.751 381.163 66.751C380.908 58.1863 380.174 47.2707 380.743 37.9723C381.402 27.0568 382.077 16.1563 382.736 5.24079C388.369 5.58518 394.002 5.97448 399.635 6.39374C397.568 33.675 395.485 60.9563 393.418 88.2526C387.829 87.8333 382.226 87.444 376.623 87.1146C369.507 72.0365 362.046 57.0333 354.256 42.1199C351.544 36.1456 348.802 30.1862 346.001 24.2269C345.806 24.2269 345.611 24.2269 345.401 24.2119C345.986 33.0911 346.96 43.4226 346.675 52.8408C346.345 63.8012 346.016 74.7616 345.686 85.7221C340.458 85.5723 335.229 85.4526 329.985 85.3627C330.39 58.0066 330.794 30.6504 331.214 3.2793L331.229 3.30924Z" stroke="#E1DFE8"/>
<path d="M421.718 8.31055C439.966 10.0624 458.169 12.2485 476.341 14.8838C475.682 19.4207 475.023 23.9426 474.364 28.4795C462.273 26.7277 450.153 25.1704 438.033 23.8079C437.329 30.0817 436.625 36.3555 435.921 42.6293C446.048 43.7672 456.176 45.04 466.274 46.4624C465.629 50.9993 465 55.5362 464.356 60.0731C454.378 58.6806 444.385 57.4079 434.378 56.2998C433.569 63.5619 432.745 70.8389 431.936 78.1009C443.891 79.4335 455.816 80.9758 467.727 82.7277C467.068 87.2646 466.393 91.7865 465.734 96.3234C448.49 93.7929 431.202 91.6966 413.883 90.0496C416.49 62.8132 419.111 35.5769 421.718 8.34049V8.31055Z" stroke="#E1DFE8"/>
<path d="M478.603 87.7127C482.363 84.4934 486.169 81.2892 490.004 78.1148C495.113 84.4635 502.319 89.4496 509.585 90.8271C518.199 92.4592 523.503 89.8239 524.656 84.164C525.87 78.1897 521.136 75.2999 514.184 70.8378C510.708 68.6068 507.203 66.3908 503.682 64.1897C495.697 59.2785 488.071 51.3127 489.944 39.4988C492.011 26.2774 506.379 18.0571 524.372 21.471C534.664 23.4175 544.177 29.2271 549.826 37.3726C546.155 40.0977 542.5 42.8378 538.889 45.5929C534.275 40.2175 528.956 36.6688 521.75 35.3063C514.064 33.8539 508.656 36.1747 507.712 41.5202C506.693 47.2999 512.386 50.4442 519.173 54.5619C522.634 56.763 526.08 58.979 529.51 61.225C539.084 67.3341 544.462 75.0154 541.915 86.5747C538.994 99.6763 525.45 108.286 506.619 104.722C495.682 102.656 485.479 96.5619 478.588 87.7426L478.603 87.7127Z" stroke="#E1DFE8"/>
<path d="M548.298 101.129C552.283 98.1792 556.298 95.2444 560.343 92.3247C565.032 99.0177 571.909 104.468 579.1 106.34C587.625 108.556 593.108 106.28 594.636 100.725C596.239 94.8551 591.715 91.6509 585.033 86.7097C581.692 84.2391 578.351 81.7835 574.965 79.3578C567.295 73.9075 560.193 65.4476 562.875 53.7835C565.826 40.7268 580.763 33.5097 598.546 38.1364C608.719 40.7867 617.873 47.2402 622.981 55.745C619.116 58.2006 615.281 60.6862 611.475 63.1867C607.206 57.5118 602.127 53.6038 595.011 51.7471C587.415 49.7706 581.842 51.7172 580.538 56.9878C579.13 62.6926 584.628 66.2113 591.145 70.7781C594.471 73.2188 597.767 75.6594 601.048 78.13C610.232 84.8829 615.101 92.9086 611.775 104.288C607.97 117.165 593.827 124.817 575.22 119.98C564.418 117.18 554.605 110.397 548.298 101.129Z" stroke="#E1DFE8"/>
<path d="M1.09375 49.368C6.96655 47.661 12.8394 46.014 18.7271 44.3969C24.57 56.66 30.3229 68.953 36.001 81.276C39.4767 89.2867 43.0273 97.2974 46.5031 105.548C46.6529 105.503 46.8027 105.473 46.9525 105.428C46.3682 96.414 45.9787 87.4749 45.6791 78.7455C45.6192 64.9551 45.6791 51.1648 45.8888 37.3445C50.8927 36.1166 55.9115 34.9188 60.9304 33.7509C67.3126 45.999 73.5749 58.2771 79.7174 70.615C83.3729 78.4311 86.9835 86.7113 90.639 94.9765C90.8188 94.9316 91.0135 94.9017 91.1933 94.8568C90.5491 85.9327 89.9648 77.0985 89.4554 68.4888C88.9311 54.938 88.4966 41.3723 88.137 27.7915C93.6952 26.6535 99.2534 25.5455 104.827 24.4824C104.482 52.3926 104.557 80.2878 105.021 108.123C98.2496 109.516 91.4929 110.968 84.7362 112.495C78.7136 100.008 72.5561 87.5498 66.2938 75.137C63.4473 69.2076 60.7206 63.368 58.2037 57.4685C58.0539 57.4985 57.8891 57.5434 57.7393 57.5733C58.0539 63.9969 58.3835 70.4054 58.5333 76.9787C58.6532 90.8589 58.8929 104.724 59.2525 118.574C52.6456 120.251 46.0536 121.988 39.4617 123.785C27.0869 98.8546 14.2926 74.0289 1.09375 49.368Z" stroke="#E1DFE8"/>
<path d="M117.756 20.9339C135.854 17.7146 153.996 14.9595 172.199 12.6387C172.783 17.1756 173.353 21.7274 173.937 26.2643C161.817 27.8066 149.727 29.5585 137.651 31.505C138.655 37.7339 139.659 43.9777 140.663 50.2066C150.745 48.5745 160.843 47.0921 170.956 45.7595C171.555 50.2964 172.154 54.8333 172.768 59.3852C162.791 60.7028 152.813 62.1702 142.865 63.7724C144.034 70.9895 145.187 78.2066 146.356 85.4237C158.251 83.5071 170.162 81.8002 182.087 80.2879C182.656 84.8248 183.241 89.3766 183.81 93.9135C166.536 96.0996 149.292 98.705 132.123 101.76C127.329 74.8226 122.55 47.8708 117.756 20.9339Z" stroke="#E1DFE8"/>
<path d="M191.57 10.3332C197.518 9.67443 203.451 9.0755 209.398 8.52148C211.526 31.206 213.653 53.8905 215.796 76.575C227.152 75.5119 238.538 74.6284 249.909 73.9247C250.193 78.4915 250.463 83.0584 250.748 87.6402C233.983 88.6734 217.249 90.0958 200.544 91.9375C197.548 64.7461 194.567 37.5397 191.57 10.3482V10.3332Z" stroke="#E1DFE8"/>
<path d="M261.324 4.86781C267.287 4.58331 273.25 4.35871 279.212 4.16406C279.931 26.9384 280.636 49.7127 281.355 72.4871C292.756 72.1277 304.142 71.963 315.543 71.963C315.543 76.5448 315.543 81.1266 315.543 85.6935C298.763 85.6785 281.984 86.0678 265.204 86.8614C263.916 59.5352 262.613 32.194 261.324 4.86781Z" stroke="#E1DFE8"/>
<path d="M331.229 3.72917C337.311 3.819 343.409 3.95376 349.491 4.14842C357.701 19.0019 365.582 33.9302 373.102 48.9484C375.649 54.9976 378.136 61.0618 380.593 67.1409C380.788 67.1409 380.968 67.1709 381.163 67.1709C380.908 58.6062 380.174 47.6907 380.743 38.3923C381.402 27.4768 382.077 16.5762 382.736 5.66072C388.369 6.0051 394.002 6.39441 399.635 6.81366C397.568 34.0949 395.485 61.3762 393.418 88.6725C387.829 88.2532 382.226 87.8639 376.623 87.5345C369.507 72.4564 362.046 57.4532 354.256 42.5399C351.544 36.5655 348.802 30.6062 346.001 24.6468C345.806 24.6468 345.611 24.6468 345.401 24.6318C345.986 33.511 346.96 43.8425 346.675 53.2607C346.345 64.2211 346.016 75.1816 345.686 86.142C340.458 85.9923 335.229 85.8725 329.985 85.7826C330.39 58.4265 330.794 31.0703 331.214 3.69922L331.229 3.72917Z" stroke="#E1DFE8"/>
<path d="M421.718 8.73047C439.966 10.4823 458.169 12.6684 476.341 15.3037C475.682 19.8406 475.023 24.3626 474.364 28.8995C462.273 27.1476 450.153 25.5904 438.033 24.2278C437.329 30.5016 436.625 36.7754 435.921 43.0492C446.048 44.1872 456.176 45.4599 466.274 46.8823C465.629 51.4192 465 55.9561 464.356 60.493C454.378 59.1005 444.385 57.8278 434.378 56.7198C433.569 63.9818 432.745 71.2588 431.936 78.5208C443.891 79.8535 455.816 81.3957 467.727 83.1476C467.068 87.6845 466.393 92.2064 465.734 96.7433C448.49 94.2128 431.202 92.1166 413.883 90.4695C416.49 63.2331 419.111 35.9968 421.718 8.76042V8.73047Z" stroke="#E1DFE8"/>
<path d="M478.603 88.1482C482.363 84.929 486.169 81.7247 490.004 78.5504C495.113 84.899 502.319 89.8851 509.585 91.2627C518.199 92.8948 523.503 90.2595 524.656 84.5996C525.87 78.6252 521.136 75.7354 514.184 71.2734C510.708 69.0423 507.203 66.8263 503.682 64.6252C495.697 59.714 488.071 51.7482 489.944 39.9343C492.011 26.7129 506.379 18.4926 524.372 21.9065C534.664 23.853 544.177 29.6627 549.826 37.8081C546.155 40.5333 542.5 43.2734 538.889 46.0284C534.275 40.653 528.956 37.1044 521.75 35.7418C514.064 34.2894 508.656 36.6103 507.712 41.9557C506.693 47.7354 512.386 50.8798 519.173 54.9974C522.634 57.1985 526.08 59.4145 529.51 61.6605C539.084 67.7696 544.462 75.4509 541.915 87.0103C538.994 100.112 525.45 108.722 506.619 105.158C495.682 103.092 485.479 96.9974 478.588 88.1782L478.603 88.1482Z" stroke="#E1DFE8"/>
<path d="M548.298 101.564C552.283 98.6148 556.298 95.68 560.343 92.7602C565.032 99.4533 571.909 104.904 579.1 106.775C587.625 108.991 593.108 106.715 594.636 101.16C596.239 95.2907 591.715 92.0864 585.033 87.1452C581.692 84.6746 578.351 82.219 574.965 79.7934C567.295 74.3431 560.193 65.8832 562.875 54.219C565.826 41.1623 580.763 33.9452 598.546 38.572C608.719 41.2222 617.873 47.6757 622.981 56.1805C619.116 58.6361 615.281 61.1217 611.475 63.6222C607.206 57.9474 602.127 54.0393 595.011 52.1827C587.415 50.2062 581.842 52.1527 580.538 57.4233C579.13 63.1281 584.628 66.6468 591.145 71.2137C594.471 73.6543 597.767 76.095 601.048 78.5655C610.232 85.3185 615.101 93.3442 611.775 104.724C607.97 117.601 593.827 125.252 575.22 120.416C564.418 117.616 554.605 110.833 548.298 101.564Z" stroke="#E1DFE8"/>
<path d="M1.09375 49.8016C6.96655 48.0946 12.8394 46.4476 18.7271 44.8305C24.57 57.0936 30.3229 69.3866 36.001 81.7096C39.4767 89.7203 43.0273 97.731 46.5031 105.981C46.6529 105.936 46.8027 105.906 46.9525 105.861C46.3682 96.8476 45.9787 87.9085 45.6791 79.1791C45.6192 65.3887 45.6791 51.5984 45.8888 37.778C50.8927 36.5502 55.9115 35.3524 60.9304 34.1845C67.3126 46.4326 73.5749 58.7107 79.7174 71.0486C83.3729 78.8647 86.9835 87.1449 90.639 95.4101C90.8188 95.3652 91.0135 95.3353 91.1933 95.2903C90.5491 86.3663 89.9648 77.5321 89.4554 68.9224C88.9311 55.3716 88.4966 41.8059 88.137 28.2251C93.6952 27.0871 99.2534 25.9791 104.827 24.916C104.482 52.8262 104.557 80.7214 105.021 108.557C98.2496 109.949 91.4929 111.402 84.7362 112.929C78.7136 100.441 72.5561 87.9834 66.2938 75.5706C63.4473 69.6412 60.7206 63.8016 58.2037 57.9021C58.0539 57.9321 57.8891 57.977 57.7393 58.0069C58.0539 64.4305 58.3835 70.839 58.5333 77.4123C58.6532 91.2925 58.8929 105.158 59.2525 119.008C52.6456 120.685 46.0536 122.422 39.4617 124.219C27.0869 99.2882 14.2926 74.4625 1.09375 49.8016Z" stroke="#E1DFE8"/>
<path d="M117.756 21.3675C135.854 18.1482 153.996 15.3931 172.199 13.0723C172.783 17.6092 173.353 22.161 173.937 26.6979C161.817 28.2402 149.727 29.9921 137.651 31.9386C138.655 38.1675 139.659 44.4113 140.663 50.6402C150.745 49.0081 160.843 47.5257 170.956 46.1931C171.555 50.73 172.154 55.2669 172.768 59.8188C162.791 61.1364 152.813 62.6038 142.865 64.206C144.034 71.4231 145.187 78.6402 146.356 85.8573C158.251 83.9407 170.162 82.2338 182.087 80.7215C182.656 85.2584 183.241 89.8102 183.81 94.3471C166.536 96.5332 149.292 99.1386 132.123 102.193C127.329 75.2562 122.55 48.3044 117.756 21.3675Z" stroke="#E1DFE8"/>
<path d="M191.57 10.7668C197.518 10.108 203.451 9.50909 209.398 8.95508C211.526 31.6396 213.653 54.3241 215.796 77.0086C227.152 75.9455 238.538 75.062 249.909 74.3583C250.193 78.9251 250.463 83.492 250.748 88.0738C233.983 89.107 217.249 90.5294 200.544 92.3711C197.548 65.1797 194.567 37.9733 191.57 10.7818V10.7668Z" stroke="#E1DFE8"/>
<path d="M261.324 5.28577C267.287 5.00128 273.25 4.77668 279.212 4.58203C279.931 27.3564 280.636 50.1307 281.355 72.905C292.756 72.5457 304.142 72.381 315.543 72.381C315.543 76.9628 315.543 81.5446 315.543 86.1114C298.763 86.0965 281.984 86.4858 265.204 87.2794C263.916 59.9532 262.613 32.612 261.324 5.28577Z" stroke="#E1DFE8"/>
<path d="M331.229 4.16276C337.311 4.2526 343.409 4.38736 349.491 4.58201C357.701 19.4355 365.582 34.3638 373.102 49.382C375.649 55.4312 378.136 61.4954 380.593 67.5745C380.788 67.5745 380.968 67.6045 381.163 67.6045C380.908 59.0398 380.174 48.1243 380.743 38.8259C381.402 27.9104 382.077 17.0098 382.736 6.09431C388.369 6.4387 394.002 6.828 399.635 7.24725C397.568 34.5285 395.485 61.8098 393.418 89.1061C387.829 88.6868 382.226 88.2975 376.623 87.9681C369.507 72.89 362.046 57.8868 354.256 42.9735C351.544 36.9991 348.802 31.0398 346.001 25.0804C345.806 25.0804 345.611 25.0804 345.401 25.0654C345.986 33.9446 346.96 44.2761 346.675 53.6943C346.345 64.6547 346.016 75.6152 345.686 86.5756C340.458 86.4259 335.229 86.3061 329.985 86.2162C330.39 58.8601 330.794 31.5039 331.214 4.13281L331.229 4.16276Z" stroke="#E1DFE8"/>
<path d="M421.718 9.14844C439.966 10.9003 458.169 13.0864 476.341 15.7217C475.682 20.2586 475.023 24.7805 474.364 29.3174C462.273 27.5655 450.153 26.0083 438.033 24.6458C437.329 30.9196 436.625 37.1934 435.921 43.4672C446.048 44.6051 456.176 45.8778 466.274 47.3003C465.629 51.8372 465 56.3741 464.356 60.911C454.378 59.5185 444.385 58.2458 434.378 57.1377C433.569 64.3998 432.745 71.6768 431.936 78.9388C443.891 80.2714 455.816 81.8137 467.727 83.5656C467.068 88.1025 466.393 92.6244 465.734 97.1613C448.49 94.6308 431.202 92.5345 413.883 90.8875C416.49 63.6511 419.111 36.4147 421.718 9.17838V9.14844Z" stroke="#E1DFE8"/>
<path d="M478.603 88.5662C482.363 85.347 486.169 82.1427 490.004 78.9683C495.113 85.317 502.319 90.3031 509.585 91.6806C518.199 93.3127 523.503 90.6774 524.656 85.0175C525.87 79.0432 521.136 76.1534 514.184 71.6913C510.708 69.4603 507.203 67.2443 503.682 65.0432C495.697 60.132 488.071 52.1662 489.944 40.3523C492.011 27.1309 506.379 18.9106 524.372 22.3245C534.664 24.271 544.177 30.0806 549.826 38.2261C546.155 40.9512 542.5 43.6913 538.889 46.4464C534.275 41.071 528.956 37.5224 521.75 36.1598C514.064 34.7074 508.656 37.0282 507.712 42.3737C506.693 48.1534 512.386 51.2977 519.173 55.4154C522.634 57.6165 526.08 59.8325 529.51 62.0785C539.084 68.1876 544.462 75.8689 541.915 87.4282C538.994 100.53 525.45 109.139 506.619 105.576C495.682 103.51 485.479 97.4154 478.588 88.5961L478.603 88.5662Z" stroke="#E1DFE8"/>
<path d="M548.298 101.982C552.283 99.0327 556.298 96.098 560.343 93.1782C565.032 99.8712 571.909 105.321 579.1 107.193C587.625 109.409 593.108 107.133 594.636 101.578C596.239 95.7086 591.715 92.5044 585.033 87.5632C581.692 85.0926 578.351 82.637 574.965 80.2113C567.295 74.7611 560.193 66.3012 562.875 54.637C565.826 41.5803 580.763 34.3632 598.546 38.9899C608.719 41.6402 617.873 48.0937 622.981 56.5985C619.116 59.0541 615.281 61.5397 611.475 64.0402C607.206 58.3653 602.127 54.4573 595.011 52.6006C587.415 50.6242 581.842 52.5707 580.538 57.8413C579.13 63.5461 584.628 67.0648 591.145 71.6316C594.471 74.0723 597.767 76.5129 601.048 78.9835C610.232 85.7365 615.101 93.7621 611.775 105.142C607.97 118.019 593.827 125.67 575.22 120.834C564.418 118.034 554.605 111.251 548.298 101.982Z" stroke="#E1DFE8"/>
<path d="M1.09375 50.2215C6.96655 48.5145 12.8394 46.8675 18.7271 45.2504C24.57 57.5135 30.3229 69.8065 36.001 82.1295C39.4767 90.1402 43.0273 98.1509 46.5031 106.401C46.6529 106.356 46.8027 106.326 46.9525 106.281C46.3682 97.2675 45.9787 88.3284 45.6791 79.599C45.6192 65.8087 45.6791 52.0183 45.8888 38.198C50.8927 36.9702 55.9115 35.7723 60.9304 34.6044C67.3126 46.8525 73.5749 59.1306 79.7174 71.4686C83.3729 79.2846 86.9835 87.5648 90.639 95.8301C90.8188 95.7851 91.0135 95.7552 91.1933 95.7103C90.5491 86.7862 89.9648 77.952 89.4554 69.3424C88.9311 55.7916 88.4966 42.2258 88.137 28.645C93.6952 27.5071 99.2534 26.399 104.827 25.3359C104.482 53.2461 104.557 81.1413 105.021 108.977C98.2496 110.369 91.4929 111.822 84.7362 113.349C78.7136 100.861 72.5561 88.4033 66.2938 75.9905C63.4473 70.0611 60.7206 64.2215 58.2037 58.322C58.0539 58.352 57.8891 58.3969 57.7393 58.4268C58.0539 64.8504 58.3835 71.2589 58.5333 77.8322C58.6532 91.7124 58.8929 105.578 59.2525 119.428C52.6456 121.105 46.0536 122.842 39.4617 124.639C27.0869 99.7081 14.2926 74.8825 1.09375 50.2215Z" stroke="#E1DFE8"/>
<path d="M117.756 21.7874C135.854 18.5681 153.996 15.813 172.199 13.4922C172.783 18.0291 173.353 22.581 173.937 27.1179C161.817 28.6601 149.727 30.412 137.651 32.3585C138.655 38.5874 139.659 44.8312 140.663 51.0601C150.745 49.428 160.843 47.9457 170.956 46.613C171.555 51.1499 172.154 55.6868 172.768 60.2387C162.791 61.5564 152.813 63.0237 142.865 64.6259C144.034 71.843 145.187 79.0601 146.356 86.2772C158.251 84.3606 170.162 82.6537 182.087 81.1414C182.656 85.6783 183.241 90.2302 183.81 94.767C166.536 96.9531 149.292 99.5585 132.123 102.613C127.329 75.6761 122.55 48.7243 117.756 21.7874Z" stroke="#E1DFE8"/>
<path d="M191.57 11.1868C197.518 10.5279 203.451 9.92901 209.398 9.375C211.526 32.0595 213.653 54.744 215.796 77.4285C227.152 76.3654 238.538 75.482 249.909 74.7782C250.193 79.3451 250.463 83.9119 250.748 88.4937C233.983 89.5269 217.249 90.9493 200.544 92.791C197.548 65.5996 194.567 38.3932 191.57 11.2017V11.1868Z" stroke="#E1DFE8"/>
<path d="M261.324 5.7057C267.287 5.4212 273.25 5.19661 279.212 5.00195C279.931 27.7763 280.636 50.5506 281.355 73.325C292.756 72.9656 304.142 72.8009 315.543 72.8009C315.543 77.3827 315.543 81.9645 315.543 86.5314C298.763 86.5164 281.984 86.9057 265.204 87.6993C263.916 60.3731 262.613 33.0319 261.324 5.7057Z" stroke="#E1DFE8"/>
<path d="M331.229 4.58268C337.311 4.67252 343.409 4.80728 349.491 5.00193C357.701 19.8554 365.582 34.7837 373.102 49.8019C375.649 55.8511 378.136 61.9153 380.593 67.9944C380.788 67.9944 380.968 68.0244 381.163 68.0244C380.908 59.4597 380.174 48.5442 380.743 39.2458C381.402 28.3303 382.077 17.4297 382.736 6.51423C388.369 6.85862 394.002 7.24792 399.635 7.66717C397.568 34.9485 395.485 62.2297 393.418 89.526C387.829 89.1067 382.226 88.7174 376.623 88.388C369.507 73.3099 362.046 58.3067 354.256 43.3934C351.544 37.419 348.802 31.4597 346.001 25.5003C345.806 25.5003 345.611 25.5003 345.401 25.4854C345.986 34.3645 346.96 44.696 346.675 54.1142C346.345 65.0747 346.016 76.0351 345.686 86.9955C340.458 86.8458 335.229 86.726 329.985 86.6362C330.39 59.28 330.794 31.9239 331.214 4.55273L331.229 4.58268Z" stroke="#E1DFE8"/>
<path d="M421.718 9.58398C439.966 11.3359 458.169 13.522 476.341 16.1572C475.682 20.6941 475.023 25.2161 474.364 29.753C462.273 28.0011 450.153 26.4439 438.033 25.0813C437.329 31.3551 436.625 37.6289 435.921 43.9027C446.048 45.0407 456.176 46.3134 466.274 47.7359C465.629 52.2728 465 56.8097 464.356 61.3466C454.378 59.954 444.385 58.6813 434.378 57.5733C433.569 64.8353 432.745 72.1123 431.936 79.3744C443.891 80.707 455.816 82.2492 467.727 84.0011C467.068 88.538 466.393 93.0599 465.734 97.5968C448.49 95.0663 431.202 92.9701 413.883 91.323C416.49 64.0867 419.111 36.8503 421.718 9.61393V9.58398Z" stroke="#E1DFE8"/>
<path d="M478.603 88.9861C482.363 85.7669 486.169 82.5626 490.004 79.3883C495.113 85.7369 502.319 90.723 509.585 92.1006C518.199 93.7327 523.503 91.0974 524.656 85.4375C525.87 79.4631 521.136 76.5733 514.184 72.1113C510.708 69.8802 507.203 67.6642 503.682 65.4631C495.697 60.5519 488.071 52.5861 489.944 40.7722C492.011 27.5508 506.379 19.3305 524.372 22.7444C534.664 24.6909 544.177 30.5006 549.826 38.646C546.155 41.3711 542.5 44.1113 538.889 46.8663C534.275 41.4909 528.956 37.9423 521.75 36.5797C514.064 35.1273 508.656 37.4482 507.712 42.7936C506.693 48.5733 512.386 51.7177 519.173 55.8353C522.634 58.0364 526.08 60.2524 529.51 62.4984C539.084 68.6075 544.462 76.2888 541.915 87.8482C538.994 100.95 525.45 109.559 506.619 105.996C495.682 103.929 485.479 97.8353 478.588 89.0161L478.603 88.9861Z" stroke="#E1DFE8"/>
<path d="M548.298 102.402C552.283 99.4526 556.298 96.5179 560.343 93.5981C565.032 100.291 571.909 105.741 579.1 107.613C587.625 109.829 593.108 107.553 594.636 101.998C596.239 96.1286 591.715 92.9243 585.033 87.9831C581.692 85.5125 578.351 83.0569 574.965 80.6312C567.295 75.181 560.193 66.7211 562.875 55.0569C565.826 42.0002 580.763 34.7831 598.546 39.4099C608.719 42.0601 617.873 48.5136 622.981 57.0184C619.116 59.474 615.281 61.9596 611.475 64.4601C607.206 58.7853 602.127 54.8772 595.011 53.0206C587.415 51.0441 581.842 52.9906 580.538 58.2612C579.13 63.966 584.628 67.4847 591.145 72.0516C594.471 74.4922 597.767 76.9328 601.048 79.4034C610.232 86.1564 615.101 94.182 611.775 105.562C607.97 118.439 593.827 126.09 575.22 121.254C564.418 118.454 554.605 111.671 548.298 102.402Z" stroke="#E1DFE8"/>
<path d="M1.09375 50.6414C6.96655 48.9345 12.8394 47.2874 18.7271 45.6703C24.57 57.9334 30.3229 70.2264 36.001 82.5494C39.4767 90.5601 43.0273 98.5708 46.5031 106.821C46.6529 106.776 46.8027 106.746 46.9525 106.701C46.3682 97.6874 45.9787 88.7484 45.6791 80.019C45.6192 66.2286 45.6791 52.4382 45.8888 38.6179C50.8927 37.3901 55.9115 36.1922 60.9304 35.0243C67.3126 47.2724 73.5749 59.5505 79.7174 71.8885C83.3729 79.7045 86.9835 87.9847 90.639 96.25C90.8188 96.2051 91.0135 96.1751 91.1933 96.1302C90.5491 87.2061 89.9648 78.3719 89.4554 69.7623C88.9311 56.2115 88.4966 42.6457 88.137 29.0649C93.6952 27.927 99.2534 26.819 104.827 25.7559C104.482 53.666 104.557 81.5612 105.021 109.396C98.2496 110.789 91.4929 112.241 84.7362 113.769C78.7136 101.281 72.5561 88.8232 66.2938 76.4104C63.4473 70.481 60.7206 64.6414 58.2037 58.742C58.0539 58.7719 57.8891 58.8168 57.7393 58.8468C58.0539 65.2703 58.3835 71.6788 58.5333 78.2521C58.6532 92.1323 58.8929 105.998 59.2525 119.848C52.6456 121.525 46.0536 123.262 39.4617 125.059C27.0869 100.128 14.2926 75.3174 1.09375 50.6414Z" stroke="#E1DFE8"/>
<path d="M117.756 22.2073C135.854 18.988 153.996 16.233 172.199 13.9121C172.783 18.449 173.353 23.0009 173.937 27.5378C161.817 29.08 149.727 30.8319 137.651 32.7784C138.655 39.0073 139.659 45.2511 140.663 51.48C150.745 49.8479 160.843 48.3656 170.956 47.033C171.555 51.5699 172.154 56.1068 172.768 60.6586C162.791 61.9763 152.813 63.4437 142.865 65.0458C144.034 72.2629 145.187 79.48 146.356 86.6971C158.251 84.7806 170.162 83.0736 182.087 81.5613C182.656 86.0982 183.241 90.6501 183.81 95.187C166.536 97.3731 149.292 99.9784 132.123 103.033C127.329 76.0961 122.55 49.1442 117.756 22.2073Z" stroke="#E1DFE8"/>
<path d="M191.57 11.6204C197.518 10.9615 203.451 10.3626 209.398 9.80859C211.526 32.4931 213.653 55.1776 215.796 77.8621C227.152 76.799 238.538 75.9155 249.909 75.2118C250.193 79.7787 250.463 84.3455 250.748 88.9273C233.983 89.9605 217.249 91.3829 200.544 93.2246C197.548 66.0332 194.567 38.8268 191.57 11.6353V11.6204Z" stroke="#E1DFE8"/>
<path d="M261.324 6.14124C267.287 5.85675 273.25 5.63215 279.212 5.4375C279.931 28.2118 280.636 50.9862 281.355 73.7605C292.756 73.4011 304.142 73.2364 315.543 73.2364C315.543 77.8182 315.543 82.4001 315.543 86.9669C298.763 86.9519 281.984 87.3412 265.204 88.1348C263.916 60.8086 262.613 33.4674 261.324 6.14124Z" stroke="#E1DFE8"/>
<path d="M331.229 5.0026C337.311 5.09244 343.409 5.2272 349.491 5.42185C357.701 20.2753 365.582 35.2037 373.102 50.2219C375.649 56.2711 378.136 62.3352 380.593 68.4144C380.788 68.4144 380.968 68.4443 381.163 68.4443C380.908 59.8796 380.174 48.9641 380.743 39.6657C381.402 28.7502 382.077 17.8497 382.736 6.93415C388.369 7.27854 394.002 7.66784 399.635 8.08709C397.568 35.3684 395.485 62.6497 393.418 89.9459C387.829 89.5267 382.226 89.1374 376.623 88.8079C369.507 73.7299 362.046 58.7267 354.256 43.8133C351.544 37.839 348.802 31.8796 346.001 25.9202C345.806 25.9202 345.611 25.9202 345.401 25.9053C345.986 34.7844 346.96 45.116 346.675 54.5341C346.345 65.4946 346.016 76.455 345.686 87.4154C340.458 87.2657 335.229 87.1459 329.985 87.0561C330.39 59.6999 330.794 32.3438 331.214 4.97266L331.229 5.0026Z" stroke="#E1DFE8"/>
<path d="M421.718 10.0039C439.966 11.7558 458.169 13.9419 476.341 16.5772C475.682 21.1141 475.023 25.636 474.364 30.1729C462.273 28.421 450.153 26.8638 438.033 25.5012C437.329 31.775 436.625 38.0488 435.921 44.3226C446.048 45.4606 456.176 46.7333 466.274 48.1558C465.629 52.6927 465 57.2296 464.356 61.7665C454.378 60.374 444.385 59.1012 434.378 57.9932C433.569 65.2552 432.745 72.5323 431.936 79.7943C443.891 81.1269 455.816 82.6692 467.727 84.421C467.068 88.9579 466.393 93.4798 465.734 98.0167C448.49 95.4863 431.202 93.39 413.883 91.7429C416.49 64.5066 419.111 37.2702 421.718 10.0339V10.0039Z" stroke="#E1DFE8"/>
<path d="M478.603 89.4217C482.363 86.2024 486.169 82.9981 490.004 79.8238C495.113 86.1725 502.319 91.1586 509.585 92.5361C518.199 94.1682 523.503 91.5329 524.656 85.873C525.87 79.8987 521.136 77.0088 514.184 72.5468C510.708 70.3158 507.203 68.0997 503.682 65.8987C495.697 60.9874 488.071 53.0217 489.944 41.2078C492.011 27.9864 506.379 19.7661 524.372 23.18C534.664 25.1265 544.177 30.9361 549.826 39.0816C546.155 41.8067 542.5 44.5468 538.889 47.3019C534.275 41.9265 528.956 38.3778 521.75 37.0153C514.064 35.5628 508.656 37.8837 507.712 43.2292C506.693 49.0088 512.386 52.1532 519.173 56.2709C522.634 58.4719 526.08 60.688 529.51 62.934C539.084 69.0431 544.462 76.7243 541.915 88.2837C538.994 101.385 525.45 109.995 506.619 106.431C495.682 104.365 485.479 98.2709 478.588 89.4516L478.603 89.4217Z" stroke="#E1DFE8"/>
<path d="M548.298 102.838C552.283 99.8882 556.298 96.9534 560.343 94.0336C565.032 100.727 571.909 106.177 579.1 108.049C587.625 110.265 593.108 107.989 594.636 102.434C596.239 96.5641 591.715 93.3598 585.033 88.4187C581.692 85.9481 578.351 83.4925 574.965 81.0668C567.295 75.6165 560.193 67.1566 562.875 55.4925C565.826 42.4358 580.763 35.2187 598.546 39.8454C608.719 42.4957 617.873 48.9491 622.981 57.454C619.116 59.9096 615.281 62.3951 611.475 64.8957C607.206 59.2208 602.127 55.3128 595.011 53.4561C587.415 51.4796 581.842 53.4262 580.538 58.6967C579.13 64.4016 584.628 67.9203 591.145 72.4871C594.471 74.9278 597.767 77.3684 601.048 79.839C610.232 86.5919 615.101 94.6176 611.775 105.997C607.97 118.874 593.827 126.526 575.22 121.689C564.418 118.889 554.605 112.106 548.298 102.838Z" stroke="#E1DFE8"/>
<path d="M1.09375 50.6414C6.96655 48.9345 12.8394 47.2874 18.7271 45.6703C24.57 57.9334 30.3229 70.2264 36.001 82.5494C39.4767 90.5601 43.0273 98.5708 46.5031 106.821C46.6529 106.776 46.8027 106.746 46.9525 106.701C46.3682 97.6874 45.9787 88.7484 45.6791 80.019C45.6192 66.2286 45.6791 52.4382 45.8888 38.6179C50.8927 37.3901 55.9115 36.1922 60.9304 35.0243C67.3126 47.2724 73.5749 59.5505 79.7174 71.8885C83.3729 79.7045 86.9835 87.9847 90.639 96.25C90.8188 96.205 91.0135 96.1751 91.1933 96.1302C90.5491 87.2061 89.9648 78.3719 89.4554 69.7623C88.9311 56.2115 88.4966 42.6457 88.137 29.0649C93.6952 27.927 99.2534 26.819 104.827 25.7559C104.482 53.666 104.557 81.5612 105.021 109.396C98.2496 110.789 91.4929 112.241 84.7362 113.769C78.7136 101.281 72.5561 88.8232 66.2938 76.4104C63.4473 70.481 60.7206 64.6414 58.2037 58.742C58.0539 58.7719 57.8891 58.8168 57.7393 58.8468C58.0539 65.2703 58.3835 71.6788 58.5333 78.2521C58.6532 92.1323 58.8929 105.998 59.2524 119.848C52.6455 121.525 46.0536 123.262 39.4617 125.059C27.0869 100.128 14.2926 75.3174 1.09375 50.6414Z" fill="#0F2A4C"/>
<path d="M117.756 22.2073C135.854 18.988 153.996 16.233 172.199 13.9121C172.783 18.449 173.353 23.0009 173.937 27.5378C161.817 29.08 149.727 30.8319 137.651 32.7784C138.655 39.0073 139.659 45.2511 140.663 51.48C150.745 49.8479 160.843 48.3656 170.956 47.033C171.555 51.5699 172.154 56.1068 172.768 60.6586C162.791 61.9763 152.813 63.4437 142.865 65.0458C144.034 72.2629 145.187 79.48 146.356 86.6971C158.251 84.7806 170.162 83.0736 182.087 81.5613C182.656 86.0982 183.241 90.6501 183.81 95.187C166.536 97.3731 149.292 99.9784 132.123 103.033C127.329 76.0961 122.55 49.1442 117.756 22.2073Z" fill="#0F2A4C"/>
<path d="M191.57 11.6204C197.518 10.9615 203.451 10.3626 209.398 9.80859C211.526 32.4931 213.653 55.1776 215.796 77.8621C227.152 76.799 238.538 75.9156 249.909 75.2118C250.193 79.7786 250.463 84.3455 250.748 88.9273C233.983 89.9605 217.249 91.3829 200.544 93.2246C197.548 66.0332 194.567 38.8268 191.57 11.6353V11.6204Z" fill="#0F2A4C"/>
<path d="M261.324 6.14124C267.287 5.85675 273.25 5.63215 279.212 5.4375C279.931 28.2118 280.636 50.9862 281.355 73.7605C292.756 73.4011 304.142 73.2364 315.543 73.2364C315.543 77.8183 315.543 82.4001 315.543 86.9669C298.763 86.9519 281.984 87.3412 265.204 88.1348C263.916 60.8086 262.613 33.4674 261.324 6.14124Z" fill="#0F2A4C"/>
<path d="M331.229 5.0026C337.311 5.09244 343.409 5.2272 349.491 5.42185C357.701 20.2753 365.582 35.2037 373.102 50.2219C375.649 56.2711 378.136 62.3352 380.593 68.4144C380.788 68.4144 380.968 68.4443 381.163 68.4443C380.908 59.8796 380.174 48.9641 380.743 39.6657C381.402 28.7502 382.076 17.8497 382.736 6.93415C388.369 7.27854 394.002 7.66784 399.635 8.08709C397.568 35.3684 395.485 62.6497 393.418 89.9459C387.829 89.5267 382.226 89.1374 376.623 88.808C369.507 73.7299 362.046 58.7267 354.256 43.8133C351.544 37.839 348.802 31.8796 346.001 25.9202C345.806 25.9202 345.611 25.9202 345.401 25.9053C345.986 34.7844 346.96 45.116 346.675 54.5341C346.345 65.4946 346.016 76.455 345.686 87.4154C340.458 87.2657 335.229 87.1459 329.985 87.0561C330.39 59.6999 330.794 32.3438 331.214 4.97266L331.229 5.0026Z" fill="#0F2A4C"/>
<path d="M421.718 10.0039C439.966 11.7558 458.169 13.9419 476.341 16.5772C475.682 21.1141 475.023 25.636 474.364 30.1729C462.273 28.421 450.153 26.8638 438.033 25.5012C437.329 31.775 436.625 38.0488 435.921 44.3226C446.048 45.4606 456.176 46.7333 466.274 48.1558C465.629 52.6927 465 57.2296 464.356 61.7665C454.378 60.374 444.385 59.1012 434.378 57.9932C433.569 65.2552 432.745 72.5323 431.936 79.7943C443.891 81.1269 455.816 82.6692 467.727 84.421C467.068 88.9579 466.393 93.4798 465.734 98.0167C448.49 95.4863 431.202 93.39 413.883 91.743C416.49 64.5066 419.111 37.2702 421.718 10.0339V10.0039Z" fill="#0F2A4C"/>
<path d="M478.603 89.4217C482.363 86.2024 486.169 82.9981 490.004 79.8238C495.113 86.1725 502.319 91.1586 509.585 92.5361C518.199 94.1682 523.503 91.5329 524.656 85.873C525.87 79.8987 521.136 77.0088 514.184 72.5468C510.708 70.3158 507.203 68.0997 503.682 65.8987C495.697 60.9874 488.071 53.0217 489.944 41.2078C492.011 27.9864 506.379 19.7661 524.372 23.18C534.664 25.1265 544.177 30.9361 549.826 39.0816C546.155 41.8067 542.5 44.5468 538.889 47.3019C534.275 41.9265 528.956 38.3778 521.75 37.0153C514.064 35.5628 508.656 37.8837 507.712 43.2292C506.693 49.0088 512.386 52.1532 519.173 56.2709C522.634 58.4719 526.08 60.688 529.51 62.934C539.084 69.0431 544.462 76.7243 541.915 88.2837C538.994 101.385 525.45 109.995 506.619 106.431C495.682 104.365 485.479 98.2709 478.588 89.4516L478.603 89.4217Z" fill="#0F2A4C"/>
<path d="M548.298 102.838C552.283 99.8882 556.298 96.9534 560.343 94.0336C565.032 100.727 571.909 106.177 579.1 108.049C587.625 110.265 593.108 107.989 594.636 102.434C596.239 96.5641 591.715 93.3598 585.033 88.4187C581.692 85.9481 578.351 83.4925 574.965 81.0668C567.295 75.6165 560.193 67.1566 562.875 55.4925C565.826 42.4358 580.763 35.2187 598.546 39.8454C608.719 42.4957 617.873 48.9491 622.981 57.454C619.116 59.9096 615.281 62.3951 611.475 64.8957C607.206 59.2208 602.127 55.3128 595.011 53.4561C587.415 51.4796 581.842 53.4262 580.538 58.6967C579.13 64.4016 584.628 67.9203 591.145 72.4871C594.471 74.9278 597.767 77.3684 601.048 79.839C610.232 86.5919 615.101 94.6176 611.775 105.997C607.97 118.874 593.827 126.526 575.22 121.689C564.418 118.889 554.605 112.106 548.298 102.838Z" fill="#0F2A4C"/>
<path d="M146.355 86.6943L142.864 65.043C144.033 72.2601 145.186 79.4772 146.355 86.6943Z" fill="#7DB9AD"/>
<path d="M215.99 77.8315L209.413 9.79297C211.54 32.4775 213.668 55.162 215.81 77.8464C215.87 77.8464 215.945 77.8464 216.005 77.8315H215.99Z" fill="#7DB9AD"/>
<path d="M281.505 73.7455L279.228 5.4375C279.947 28.2118 280.651 50.9862 281.37 73.7605C281.415 73.7605 281.46 73.7605 281.505 73.7605V73.7455Z" fill="#7DB9AD"/>
<path d="M579.1 108.048C571.909 106.177 565.032 100.726 560.343 94.0332C556.298 96.938 552.283 99.8728 548.298 102.837C553.601 110.624 561.362 116.643 570.111 120.027L580.928 108.452C580.329 108.333 579.729 108.213 579.1 108.048Z" fill="#0F2A4C"/>
<path d="M18.7275 45.6836C18.7275 45.6836 20.0309 48.5884 22.5029 53.6643C21.2445 50.9991 20.001 48.3339 18.7275 45.6836Z" fill="#7DB9AD"/>
<path d="M46.4885 106.834C46.6383 106.789 46.7882 106.759 46.938 106.714C46.7732 104.034 46.6383 101.384 46.5035 98.7186C35.2373 79.2534 26.9675 62.8576 22.5029 53.6641C27.0424 63.2769 31.5518 72.9047 36.0014 82.5625C39.4771 90.5732 43.0278 98.5838 46.5035 106.834H46.4885Z" fill="#C30D23"/>
<path d="M46.9379 106.715C46.7881 106.76 46.6383 106.789 46.4884 106.834C43.0127 98.5841 39.462 90.5884 35.9863 82.5627C31.5368 72.905 27.0273 63.2772 22.4879 53.6643C20.0309 48.5884 18.7125 45.6836 18.7125 45.6836C12.8247 47.2857 6.9519 48.9478 1.0791 50.6547C14.2779 75.3157 27.0722 100.141 39.462 125.117C46.039 123.32 52.6459 121.583 59.2528 119.906C54.6534 112.584 50.3837 105.472 46.4735 98.7189C46.6083 101.384 46.7431 104.034 46.9079 106.715H46.9379Z" fill="#C30D23"/>
</g>
<defs>
<clipPath id="clip0_779_1864">
<rect width="624" height="126" fill="white"/>
</clipPath>
</defs>
</svg>
