<svg width="390" height="500" viewBox="0 0 390 500" fill="none" xmlns="http://www.w3.org/2000/svg">
<path d="M-656.361 173.032C-639.421 96.202 -538.899 25.9732 -367.154 5.1053C-248.578 -10.2726 -150.279 11.3809 -52.0331 39.5356C13.2325 57.6092 79.7146 67.758 156.595 72.0705C283.178 79.5138 396.459 44.5144 512.138 26.9969C596.37 13.6561 696.767 11.3709 768.611 38.5423C795.175 48.6419 808.277 58.8377 837.459 67.1733C881.242 78.9606 939.076 91.9675 984.346 103.226C1002.2 107.556 1016.71 110.912 1030.61 116.275C1058.53 127.288 1068.32 147.927 1077.2 164.35C1100.95 215.153 1082.22 269.545 1031.3 316.078C938.816 400.333 749.871 455.933 553.093 479.842C430.658 495.03 303.069 499.981 176.623 499.573C-4.17495 498.902 -188.705 486.242 -346.903 445.325C-567.404 389.62 -685.065 287.967 -656.403 173.223L-656.361 173.032Z" fill="#F3F7F5"/>
</svg>
