<svg width="1440" height="167" viewBox="0 0 1440 167" fill="none" xmlns="http://www.w3.org/2000/svg">
<mask id="mask0_1178_5848" style="mask-type:alpha" maskUnits="userSpaceOnUse" x="0" y="0" width="1440" height="167">
<rect width="1440" height="167" fill="#F8F1ED"/>
</mask>
<g mask="url(#mask0_1178_5848)">
<rect width="1440" height="168" fill="#F8F1ED"/>
<path d="M-646.211 420.796C-625.12 281.34 -462.704 130.057 -173.873 77.1403C25.4449 38.8637 194.081 68.8939 363.273 110.6C475.605 137.175 590.108 165.571 720.752 166.396C935.889 168.37 1124.3 95.3438 1318.49 53.4867C1459.84 21.9574 1629.67 8.82182 1754.04 51.1382C1800.03 66.88 1823.23 84.0056 1873.49 96.3448C1948.81 113.567 2048.05 131.715 2125.85 147.853C2156.51 154.021 2181.43 158.741 2205.49 167.119C2253.88 184.377 2272.5 220.55 2289.16 249.235C2334.43 338.305 2308.07 437.64 2226.43 525.761C2078.13 685.345 1763.6 802.162 1432.67 862.791C1226.8 901.075 1011.19 921.442 796.978 932.086C490.683 947.149 176.881 941.023 -95.1173 881.799C-474.106 801.63 -683.454 629.72 -646.262 421.143L-646.211 420.796Z" fill="white"/>
</g>
</svg>
