<svg width="33" height="36" viewBox="0 0 33 36" fill="none" xmlns="http://www.w3.org/2000/svg">
<g clip-path="url(#clip0_801_1381)">
<path d="M16.8665 23.8843H17.9899L17.9383 22.5352L16.8665 23.8843Z" fill="#E60012"/>
<path d="M31.2098 16.045C31.3056 15.1121 31.2798 13.7741 31.1362 12.7817C31.1362 12.7632 31.1141 12.7632 31.1104 12.7817C30.812 14.2201 29.8875 16.1639 27.8984 17.751C27.88 17.7658 27.8579 17.7398 27.8763 17.7212C29.6223 15.8406 30.6647 13.5214 30.8231 11.1352C30.4953 9.81953 29.9833 8.54842 29.3387 7.42597C29.3313 7.41111 29.3129 7.41482 29.3166 7.43341C29.6702 9.84555 29.1066 13.0308 26.786 15.6139C26.7713 15.6325 26.7455 15.6139 26.7602 15.5916C28.7567 12.6888 29.276 9.15796 28.4067 5.98018C25.7473 2.35639 21.4708 0 16.6529 0C11.8349 0 7.55843 2.35639 4.8953 5.98761C4.02601 9.16539 4.54537 12.7 6.5418 15.599C6.55654 15.6176 6.53075 15.6399 6.51602 15.6213C4.19545 13.0345 3.63188 9.85298 3.98549 7.44084C3.98549 7.42226 3.97076 7.41854 3.96339 7.43341C3.31879 8.55585 2.81047 9.82697 2.48264 11.1427C2.64471 13.5288 3.68345 15.848 5.4294 17.7287C5.44782 17.7473 5.42572 17.7696 5.4073 17.7584C3.41824 16.1677 2.49369 14.2238 2.19533 12.7892C2.19165 12.7706 2.16955 12.7706 2.16955 12.7892C2.0259 13.7778 2.00011 15.1158 2.09588 16.0524C2.59683 17.6395 3.6724 18.9738 4.77006 19.9327C4.78848 19.9513 4.77006 19.9773 4.75165 19.9624C3.52506 19.1931 2.83625 18.4386 2.36846 17.7733C2.35741 17.7584 2.34267 17.7658 2.34636 17.7807C3.6945 24.4039 9.57696 29.4995 16.6529 29.4995C23.7288 29.4995 29.6112 24.4039 30.9594 17.7807C30.9631 17.7621 30.9483 17.7584 30.9373 17.7733C30.4695 18.4386 29.7807 19.1931 28.5541 19.9624C28.532 19.9773 28.5172 19.9476 28.5357 19.9327C29.6333 18.9738 30.7052 17.6395 31.2098 16.0524V16.045ZM11.2271 25.6638C10.6894 25.6638 10.2252 25.6081 9.84217 25.5226L10.181 24.6269C11.0945 24.7347 11.8754 24.6529 12.1812 23.8501L13.1499 21.3041H15.1426L14.0744 24.1103C13.5293 25.5449 12.1848 25.6638 11.2271 25.6638ZM18.0489 25.5226L18.0194 24.6938H16.2182L15.5552 25.5226H13.9087L17.2459 21.6201C17.4043 21.4342 17.64 21.3079 17.8573 21.3079H19.6401L20.038 25.5226H18.0452H18.0489ZM25.099 25.5226H20.5757L22.178 21.3079H24.1708L22.9037 24.6306H25.4379L25.099 25.5226ZM23.261 16.6137C20.2737 19.5499 15.8057 17.6766 16.2624 14.0714C16.6123 11.2951 19.9901 8.52612 22.5427 7.02457C22.5537 7.01714 22.5537 7.00227 22.5427 6.99112C22.2075 6.67148 21.515 5.94301 21.0656 5.39665C19.828 3.89139 17.6584 3.83192 16.3692 5.47842L9.02076 6.16973C8.99129 6.16973 8.99129 6.21433 9.02076 6.21433L16.8997 6.6752C18.2957 6.75697 18.7524 8.03551 17.4043 9.06504C12.4022 12.8895 11.5071 16.9407 12.6269 20.152C12.6342 20.1743 12.6011 20.1891 12.59 20.1706C12.1296 19.5164 11.787 18.7099 11.5992 17.8662C9.19757 16.3386 7.24534 13.4396 7.24534 9.8567C7.24534 4.65331 11.4482 0.364237 16.6529 0.364237C21.8576 0.364237 26.0604 4.6496 26.0604 9.86042C26.0604 12.6777 24.8375 15.0675 23.261 16.6174V16.6137Z" fill="#E60012"/>
<path d="M32.7606 35.3603C32.5764 35.8434 31.9428 35.9921 31.2577 35.9921C30.5726 35.9921 30.1343 35.8434 30.2374 35.3603H31.1067C31.0846 35.4903 31.162 35.5721 31.4198 35.5721C31.6776 35.5721 31.8434 35.4866 31.8913 35.3603C32.0128 35.0443 30.289 35.3528 30.5652 34.6318C30.7199 34.2267 31.324 34.0371 32.0055 34.0371C32.6869 34.0371 33.0737 34.1858 32.9926 34.6281H32.1381C32.1528 34.5091 32.116 34.4199 31.8581 34.4199C31.6003 34.4199 31.464 34.5128 31.4198 34.6281C31.2982 34.9514 33.0368 34.6355 32.7643 35.3565L32.7606 35.3603Z" fill="#231815"/>
<path d="M17.5258 35.9392H16.6565L17.3563 34.0957H18.2256L17.5258 35.9392Z" fill="#231815"/>
<path d="M24.1117 35.9392H23.2424L23.9423 34.0957H24.8116L24.1117 35.9392Z" fill="#231815"/>
<path d="M29.7181 35.9392H27.6038L28.3036 34.0957H30.4216L30.2853 34.4488H29.0403L28.9003 34.8205H29.9354L29.7991 35.1735H28.764L28.6204 35.5452H29.8654L29.7181 35.9355V35.9392Z" fill="#231815"/>
<path d="M12.4207 35.9392H11.7172L11.1278 34.8502L10.7153 35.9392H10.0117L10.7116 34.0957H11.5293L12.0487 35.062L12.417 34.0957H13.1205L12.4207 35.9392Z" fill="#231815"/>
<path d="M27.0623 35.9392H26.3588L25.7694 34.8502L25.3569 35.9392H24.6533L25.3532 34.0957H26.1709L26.6903 35.062L27.0586 34.0957H27.7622L27.0623 35.9392Z" fill="#231815"/>
<path d="M1.84909 35.3224C1.60967 35.9505 1.024 36.0026 0.604085 36.0026C0.368345 36.0026 0.165755 35.9765 0 35.9394L0.147338 35.5491C0.54515 35.5937 0.887711 35.5603 1.02031 35.2109L1.44391 34.0996H2.3132L1.84541 35.3224H1.84909Z" fill="#231815"/>
<path d="M6.78117 34.0957H5.42935L4.72949 35.9392H5.59879L5.85294 35.2702H6.33548C7.13847 35.2702 7.57311 35.0546 7.71308 34.6829C7.85306 34.315 7.58785 34.0957 6.78117 34.0957ZM6.84379 34.6829C6.79222 34.8167 6.63015 34.9134 6.47176 34.9134H5.98923L6.16604 34.4488H6.64857C6.80696 34.4488 6.89536 34.5491 6.84379 34.6829Z" fill="#231815"/>
<path d="M20.1191 34.0957H18.7672L18.0674 35.9392H18.9367L19.1908 35.2702H19.4524L19.6255 35.9392H20.5758L20.3438 35.2033C20.7305 35.1141 20.9589 34.932 21.0547 34.6829C21.1946 34.315 20.9257 34.0957 20.1227 34.0957H20.1191ZM20.1817 34.6829C20.1301 34.8167 19.968 34.9134 19.8097 34.9134H19.3271L19.5039 34.4488H19.9865C20.1448 34.4488 20.2333 34.5491 20.1817 34.6829Z" fill="#231815"/>
<path d="M22.0271 35.5489L22.5796 34.0957H21.7104L21.0105 35.9392H22.9848L23.1322 35.5489H22.0271Z" fill="#231815"/>
<path d="M4.33165 34.0957H3.55444C3.45867 34.0957 3.35553 34.1515 3.28555 34.2332L1.8269 35.9392H2.54518L2.83617 35.575H3.62074L3.63548 35.9392H4.50477L4.33165 34.0957ZM3.11979 35.2219L3.58759 34.6346L3.60969 35.2219H3.11979Z" fill="#231815"/>
<path d="M9.61388 34.0957H8.83667C8.7409 34.0957 8.63776 34.1515 8.56778 34.2332L7.10913 35.9392H7.8274L8.1184 35.575H8.90297L8.9177 35.9392H9.787L9.61388 34.0957ZM8.40202 35.2219L8.86982 34.6346L8.89192 35.2219H8.40202Z" fill="#231815"/>
<path d="M16.2587 34.0957H15.4778C15.382 34.0957 15.2789 34.1515 15.2126 34.2332L13.7539 35.9392H14.4722L14.7632 35.575H15.5477L15.5625 35.9392H16.4318L16.2587 34.0957ZM15.0468 35.2219L15.5146 34.6346L15.5367 35.2219H15.0468Z" fill="#231815"/>
</g>
<defs>
<clipPath id="clip0_801_1381">
<rect width="33" height="36" fill="white"/>
</clipPath>
</defs>
</svg>
