<svg width="22" height="26" viewBox="0 0 22 26" fill="none" xmlns="http://www.w3.org/2000/svg">
<g clip-path="url(#clip0_1165_831)">
<path d="M18.0498 0.177734H3.58404C3.01095 0.177734 2.54688 0.642331 2.54688 1.21437V24.9618C2.54688 25.5346 3.01171 25.9984 3.58404 25.9984H20.9622C21.5353 25.9984 22.0001 25.5346 22.0001 24.9618V4.12605L18.0498 0.177734Z" fill="#C2C2C1"/>
<path d="M17.9165 0H3.45074C2.87765 0 2.41357 0.464596 2.41357 1.03664V24.7833C2.41357 25.3561 2.87841 25.8207 3.45074 25.8207H20.8289C21.402 25.8207 21.8668 25.3561 21.8668 24.7833V3.94831L17.9165 0Z" fill="#EAEAEA"/>
<path d="M17.9165 2.91167C17.9165 3.48447 18.3806 3.94831 18.9537 3.94831H21.8668L17.9165 0V2.91167Z" fill="#D3D4D5"/>
<path d="M13.2999 2.45117H0V7.66691H13.2999V2.45117Z" fill="#CE1A22"/>
<path d="M3.1575 3.62064C3.34297 3.58583 3.5981 3.55859 3.92591 3.55859C4.30065 3.55859 4.58227 3.63199 4.77154 3.79392C4.94944 3.9445 5.0577 4.1836 5.0577 4.45828C5.0577 5.27321 4.37787 5.45406 3.93348 5.45406C3.85247 5.45406 3.78282 5.45027 3.72453 5.43892V6.55123H3.15674V3.62064H3.1575ZM3.72529 4.99173C3.77904 5.00308 3.84112 5.00686 3.92591 5.00686C4.28096 5.00686 4.48991 4.80635 4.48991 4.48552C4.48991 4.16469 4.28929 4.00276 3.97209 4.00276C3.85626 4.00276 3.77525 4.01411 3.72453 4.02622V4.99173H3.72529Z" fill="white"/>
<path d="M5.62939 3.62064C5.83834 3.58205 6.10861 3.55859 6.3978 3.55859C6.89216 3.55859 7.22829 3.66301 7.47585 3.86732C7.75747 4.09886 7.92403 4.46584 7.92403 5.00232C7.92403 5.63944 7.70372 6.01021 7.47585 6.21451C7.20558 6.4574 6.79223 6.57771 6.2744 6.57771C6.00035 6.57771 5.78005 6.5588 5.62939 6.53912V3.61988V3.62064ZM6.19719 6.11085C6.25548 6.1222 6.34027 6.1222 6.41749 6.1222C6.96181 6.12598 7.3252 5.79002 7.3252 5.00989C7.3252 4.33797 6.99663 4.00579 6.46745 4.00579C6.34784 4.00579 6.25851 4.01714 6.19719 4.02924V6.11009V6.11085Z" fill="white"/>
<path d="M8.58838 6.55121V3.58203H10.1797V4.061H9.15996V4.84492H10.1101V5.31178H9.15996V6.55121H8.58838Z" fill="white"/>
<path d="M15.1411 17.7286C15.1411 17.7286 19.7849 16.7601 19.8182 18.6298C19.8515 20.4995 16.1434 19.1973 14.8739 18.3627C14.8739 18.3627 11.3997 18.7637 8.99457 19.6316C8.99457 19.6316 7.09058 23.6715 5.38645 23.4377C3.68308 23.2039 5.62038 20.7 8.15954 19.7648C8.15954 19.7648 10.4209 16.0162 11.0893 13.9793C11.0893 13.9793 9.48287 8.84829 11.1666 8.67955C13.1712 8.47904 11.835 13.6115 11.835 13.6115C11.835 13.6115 13.1379 16.9598 15.1426 17.7278L15.1411 17.7286ZM14.1812 17.8958C14.1812 17.8958 12.4528 16.869 11.4255 14.7155C11.4255 14.7155 10.2225 17.5455 9.19595 19.273C9.19595 19.273 11.5761 18.0963 14.1819 17.8958H14.1812ZM5.15252 23.1047C5.88762 23.505 8.09216 20.0327 8.09216 20.0327C7.6243 20.0327 4.41742 22.7037 5.15252 23.1047ZM15.9428 18.1629C15.9428 18.1629 19.4169 19.7323 19.6842 18.7637C19.9514 17.7952 15.9428 18.1629 15.9428 18.1629ZM11.5337 12.8541C11.5337 12.8541 12.2355 10.55 12.0349 9.68214C11.8343 8.81424 11.2392 8.74841 11.1999 9.41504C11.1333 10.55 11.5337 12.8541 11.5337 12.8541Z" fill="#E60012"/>
</g>
<defs>
<clipPath id="clip0_1165_831">
<rect width="22" height="26" fill="white"/>
</clipPath>
</defs>
</svg>
