<svg width="1440" height="500" viewBox="0 0 1440 500" fill="none" xmlns="http://www.w3.org/2000/svg">
<path d="M-457.905 173.032C-435.649 96.202 -303.583 25.9732 -77.9437 5.1053C77.8422 -10.2726 206.987 11.3809 336.063 39.5356C421.809 57.6092 509.153 67.758 610.159 72.0705C776.464 79.5138 925.292 44.5144 1077.27 26.9969C1187.94 13.6561 1319.84 11.3709 1414.23 38.5423C1449.13 48.6419 1466.34 58.8377 1504.68 67.1733C1562.2 78.9606 1638.18 91.9675 1697.66 103.226C1721.11 107.556 1740.19 110.912 1758.44 116.275C1795.13 127.288 1807.98 147.927 1819.65 164.35C1850.86 215.153 1826.24 269.545 1759.34 316.078C1637.84 400.333 1389.61 455.933 1131.08 479.842C970.224 495.03 802.596 499.981 636.472 499.573C398.939 498.902 156.503 486.242 -51.3373 445.325C-341.032 389.62 -495.615 287.967 -457.96 173.223L-457.905 173.032Z" fill="#F8F1ED"/>
</svg>
